<svg width="86" height="86" viewBox="0 0 86 86" fill="none" xmlns="http://www.w3.org/2000/svg">
<path d="M82.9315 0H3.07154C1.37605 0 0 1.37605 0 3.07154V64.5023C0 66.1978 1.37605 67.5738 3.07154 67.5738H29.8738C34.2047 71.3856 39.8655 73.7169 46.0731 73.7169C50.1521 73.7169 53.9915 72.7033 57.3794 70.9372L70.2737 83.8315C71.7204 85.2782 73.6186 86 75.5168 86C77.4151 86 79.3133 85.2782 80.76 83.8315C83.6503 80.9412 83.6503 76.2356 80.76 73.3453L74.9885 67.5738H82.9315C84.627 67.5738 86.0031 66.1978 86.0031 64.5023V3.07154C86.0031 1.37605 84.627 0 82.9315 0ZM6.14308 6.14308H79.86V12.2862H6.14308V6.14308ZM27.6438 49.1446C27.6438 38.9809 35.9094 30.7154 46.0731 30.7154C51.2179 30.7154 55.8744 32.8409 59.2193 36.2534L51.6541 45.0779L44.7032 40.446C43.4838 39.6351 41.8651 39.7948 40.8269 40.83L31.6123 50.0446C30.4113 51.2455 30.4113 53.1868 31.6123 54.3877C32.2143 54.9867 33.0006 55.2877 33.7869 55.2877C34.5732 55.2877 35.3596 54.9867 35.9585 54.3877L43.3916 46.9546L50.5114 51.7001C51.8046 52.5632 53.5369 52.3237 54.5475 51.1442L62.8191 41.4965C63.888 43.8278 64.5023 46.414 64.5023 49.1446C64.5023 59.3083 56.2368 67.5738 46.0731 67.5738C35.9094 67.5738 27.6438 59.3083 27.6438 49.1446ZM76.4168 79.4883C75.9192 79.9829 75.1145 79.9829 74.6169 79.4883L62.4966 67.368C63.1263 66.7998 63.7283 66.2009 64.2965 65.5681L65.3992 66.6708C65.3992 66.6708 65.3992 66.6708 65.4023 66.6739L76.4168 77.6884C76.9144 78.186 76.9144 78.9907 76.4168 79.4883ZM79.86 61.4308H68.8455L67.8656 60.4509C69.6318 57.063 70.6454 53.2236 70.6454 49.1446C70.6454 44.5158 69.3369 40.1972 67.1008 36.4991L70.9525 32.0054C71.444 33.0498 72.4883 33.7869 73.7169 33.7869C75.4124 33.7869 76.7885 32.4109 76.7885 30.7154V24.5723C76.7885 22.8768 75.4124 21.5008 73.7169 21.5008H67.5738C65.8784 21.5008 64.5023 22.8768 64.5023 24.5723C64.5023 25.9729 65.4606 27.1063 66.7445 27.4749L63.2245 31.5816C58.7923 27.2538 52.7445 24.5723 46.0731 24.5723C32.5245 24.5723 21.5008 35.5961 21.5008 49.1446C21.5008 53.6229 22.7232 57.8125 24.8242 61.4308H6.14308V18.4292H79.86V61.4308Z" fill="#383838"/>
<path d="M12.2863 27.6438H30.7155C32.411 27.6438 33.787 26.2678 33.787 24.5723C33.787 22.8768 32.411 21.5007 30.7155 21.5007H12.2863C10.5908 21.5007 9.21472 22.8768 9.21472 24.5723C9.21472 26.2678 10.5908 27.6438 12.2863 27.6438Z" fill="#383838"/>
<path d="M12.2863 36.8584H18.4293C20.1248 36.8584 21.5009 35.4824 21.5009 33.7869C21.5009 32.0914 20.1248 30.7153 18.4293 30.7153H12.2863C10.5908 30.7153 9.21472 32.0914 9.21472 33.7869C9.21472 35.4824 10.5908 36.8584 12.2863 36.8584Z" fill="#383838"/>
<path d="M12.2863 55.2876H15.3578C17.0533 55.2876 18.4293 53.9116 18.4293 52.2161C18.4293 50.5206 17.0533 49.1445 15.3578 49.1445H12.2863C10.5908 49.1445 9.21472 50.5206 9.21472 52.2161C9.21472 53.9116 10.5908 55.2876 12.2863 55.2876Z" fill="#383838"/>
<path d="M12.2863 46.073H15.3578C17.0533 46.073 18.4293 44.697 18.4293 43.0015C18.4293 41.306 17.0533 39.9299 15.3578 39.9299H12.2863C10.5908 39.9299 9.21472 41.306 9.21472 43.0015C9.21472 44.697 10.5908 46.073 12.2863 46.073Z" fill="#383838"/>
</svg>
