<svg width="36" height="24" viewBox="0 0 36 24" fill="none" xmlns="http://www.w3.org/2000/svg">
<path d="M1.84626 0H34.1538C35.1693 0 36 0.83074 36 1.84612V22.1538C36 23.1691 35.1693 24 34.1538 24H1.84619C0.830879 24 0 23.1693 0 22.1538V1.84612C6.86646e-05 0.83074 0.830807 0 1.84626 0ZM2.53905 1.38452L16.938 12.1846C17.1969 12.3817 17.5943 12.5049 18.0001 12.5031C18.4058 12.5049 18.8031 12.3817 19.0621 12.1846L33.4611 1.38452H2.53905ZM10.2305 12.8973L2.38436 22.5896C2.37649 22.5993 2.36685 22.6067 2.35849 22.6155H33.6416C33.6333 22.6063 33.6236 22.5993 33.6157 22.5896L25.7696 12.8973C25.5292 12.6 25.5747 12.1643 25.8725 11.9234C26.1697 11.683 26.6054 11.7285 26.8459 12.0258L34.6154 21.6235V2.24993L19.8924 13.2922C19.339 13.7044 18.6657 13.8858 18.0002 13.8876C17.3356 13.8862 16.6617 13.7048 16.1079 13.2922L1.38494 2.24993V21.6234L9.15425 12.0258C9.39471 11.7286 9.83086 11.6829 10.1276 11.9234C10.4254 12.1638 10.4711 12.6 10.2305 12.8973Z" fill="#2CB6C0"/>
</svg>
