<svg width="105" height="105" viewBox="0 0 105 105" fill="none" xmlns="http://www.w3.org/2000/svg">
<path d="M19.9443 30.9419V8.07918C19.9443 4.46063 22.9049 1.5 26.5235 1.5H77.8411C81.4597 1.5 84.4203 4.46063 84.4203 8.07918V91.6348M19.9443 49.6923V96.8979C19.9443 100.516 22.9049 103.477 26.5235 103.477H93.9601M35.8988 58.4098L36.8856 69.5944L27.6748 63.1797M27.6748 63.1797L35.7343 58.4094L10.0755 13.6709C9.58203 12.8485 8.59515 12.3551 7.44379 12.5196C5.30556 12.8485 3.49628 13.9999 2.01596 15.6447C1.35805 16.4671 1.35805 17.6184 1.85149 18.4408L27.6748 63.1797ZM12.2137 17.4537L4.15421 22.2236M52.5113 42.4554V33.2446M42.807 43.1129H62.2156M44.7806 60.7126H75.0449M42.6423 52.4887H75.0448M44.2872 68.7722H75.0449M49.715 76.9961H74.8804M29.1551 76.9961H42.149M62.5444 85.0553H74.8804M29.1551 85.0553H54.9784M44.6161 93.2797H74.8804M29.1551 93.2797H36.7212M94.289 103.477H93.6311C88.5322 103.477 84.4202 99.3651 84.4202 94.2663V30.2837H103.5V94.2663C103.5 99.3651 99.3879 103.477 94.289 103.477ZM66.6565 22.3884C66.6565 14.3289 60.0773 7.91415 52.0178 8.24311C44.6162 8.57207 38.695 14.6578 38.5305 22.0594C38.5305 26.0069 40.0108 29.461 42.478 32.0927C45.1097 34.7243 46.7545 38.3429 46.7545 41.9614V42.9483H58.4325V41.468C58.4325 38.0139 59.9128 34.7243 62.5445 32.2571C65.0117 29.7899 66.6565 26.3359 66.6565 22.3884ZM57.4456 27.6523C57.4456 30.4485 55.1429 32.7512 52.3468 32.7512C49.5506 32.7512 47.2479 30.4485 47.2479 27.6523C47.2479 24.8561 49.5506 22.5534 52.3468 22.5534C55.3074 22.7179 57.4456 24.8561 57.4456 27.6523Z" stroke="#2CB6C0" stroke-width="3" stroke-miterlimit="10" stroke-linecap="round" stroke-linejoin="round"/>
</svg>
