<svg width="32" height="32" viewBox="0 0 32 32" fill="none" xmlns="http://www.w3.org/2000/svg">
<path d="M12.7812 28.733V31.9819L11.9976 31.3473C11.8765 31.2491 8.99536 28.9043 6.07373 25.5418C2.04346 20.9033 0 16.7396 0 13.1667V12.8125C0 5.74767 5.73364 0 12.7812 0C19.8289 0 25.5625 5.74767 25.5625 12.8125V13.1667C25.5625 13.4667 25.5466 13.7714 25.5178 14.0798L23.0183 11.7939C22.5063 6.58395 18.1108 2.5 12.7812 2.5C7.10889 2.5 2.4939 7.12628 2.4939 12.8125V13.1667C2.4939 19.2044 10.2542 26.5135 12.7812 28.733ZM20.45 26.9373H24.1907V23.1875H20.45V26.9373ZM12.7812 7.5C15.7034 7.5 18.0808 9.88326 18.0808 12.8125C18.0808 15.7418 15.7034 18.1251 12.7812 18.1251C9.85913 18.1251 7.48169 15.7418 7.48169 12.8125C7.48169 9.88326 9.85913 7.5 12.7812 7.5ZM12.7812 10C11.2341 10 9.97559 11.2616 9.97559 12.8125C9.97559 14.3632 11.2341 15.6251 12.7812 15.6251C14.3281 15.6251 15.5869 14.3632 15.5869 12.8125C15.5869 11.2616 14.3281 10 12.7812 10ZM30.3193 25.2386L29.6182 24.5974V28.6109C29.6182 30.4797 28.1013 32 26.2371 32H18.3413C16.4771 32 14.9602 30.4797 14.9602 28.6109V24.5974L14.259 25.2386L12.5784 23.3918L22.2891 14.511L32 23.3918L30.3193 25.2386ZM27.1243 22.3167L22.2891 17.895L17.4541 22.3167V28.6106C17.4541 29.1011 17.8521 29.5 18.3413 29.5H26.2371C26.7263 29.5 27.1243 29.1011 27.1243 28.6106V22.3167Z" fill="#2CB6C0"/>
</svg>
