<svg width="69" height="86" viewBox="0 0 69 86" fill="none" xmlns="http://www.w3.org/2000/svg">
<path d="M68.061 63.5578C67.8172 63.3855 58.272 42.639 57.7318 41.7163C57.8882 41.2237 57.9152 40.6991 57.8103 40.193C57.7053 39.6869 57.4719 39.2163 57.1325 38.8265C53.3858 35.5112 44.2526 44.0779 40.6398 47.3569C39.0488 49.0467 28.0259 59.2034 31.4172 63.4655C31.7869 63.8134 32.2394 64.0611 32.7318 64.1848C33.2241 64.3086 33.7399 64.3044 34.2302 64.1726L48.4328 71.6428L41.5466 78.2521C41.1749 78.5991 40.8771 79.0175 40.6711 79.4824C40.4651 79.9473 40.3551 80.449 40.3477 80.9574C40.3942 81.7134 40.6071 82.4499 40.9711 83.1141C41.3351 83.7784 41.8414 84.354 42.4536 84.8C42.8057 85.1687 43.2269 85.4643 43.6933 85.67C44.1597 85.8757 44.6621 85.9875 45.1717 85.9989C45.6813 86.0103 46.1882 85.9212 46.6634 85.7366C47.1385 85.552 47.5726 85.2755 47.9408 84.923L57.1632 76.085C64.4376 78.5641 71.5229 70.4691 68.061 63.5578ZM33.9381 61.1293C33.9202 59.7663 36.9859 55.1697 42.7608 49.5705C48.6186 44.0006 53.2369 41.3049 54.7039 41.2088C53.8804 43.5713 51.4231 47.2475 45.789 52.7369C40.1012 58.0588 36.3015 60.4473 33.9381 61.1293Z" fill="#383838"/>
<path d="M42.6784 30.5554C42.4767 30.5633 42.2786 30.6108 42.0952 30.6953C41.9119 30.7798 41.7471 30.8996 41.6101 31.0479C41.4731 31.1961 41.3667 31.37 41.297 31.5594C41.2272 31.7488 41.1955 31.9501 41.2036 32.1518L41.4386 38.1109C41.4466 38.3126 41.4942 38.5107 41.5788 38.6939C41.6633 38.8772 41.7831 39.042 41.9313 39.1789C42.0796 39.3159 42.2533 39.4223 42.4427 39.4921C42.6321 39.5618 42.8333 39.5937 43.035 39.5857C43.2366 39.5777 43.4347 39.5301 43.618 39.4455C43.8012 39.361 43.966 39.2412 44.103 39.0929C44.2399 38.9447 44.3463 38.7709 44.4161 38.5816C44.4859 38.3922 44.5177 38.191 44.5097 37.9893L44.2748 32.0302C44.2696 31.8276 44.2239 31.6281 44.1404 31.4435C44.0568 31.259 43.937 31.093 43.7882 30.9555C43.6394 30.818 43.4645 30.7117 43.2738 30.643C43.0832 30.5743 42.8808 30.5445 42.6784 30.5554Z" fill="#383838"/>
<path d="M25.4239 47.2673C25.0214 47.2406 24.6246 47.3732 24.319 47.6364C24.0134 47.8996 23.8234 48.2724 23.7902 48.6744C23.7569 49.0763 23.8829 49.4753 24.1411 49.7852C24.3993 50.0951 24.7689 50.2911 25.1703 50.3309L31.1135 50.8218C31.5152 50.8471 31.9108 50.7138 32.2154 50.4506C32.5199 50.1875 32.7091 49.8154 32.7423 49.4143C32.7755 49.0131 32.6501 48.615 32.3929 48.3054C32.1358 47.9957 31.7675 47.7992 31.3671 47.7581L25.4239 47.2673Z" fill="#383838"/>
<path d="M35.0147 43.7084C35.2988 43.9936 35.6835 44.156 36.0861 44.1607C36.4886 44.1654 36.877 44.012 37.1677 43.7335C37.4584 43.4549 37.6283 43.0735 37.6408 42.6711C37.6533 42.2687 37.5075 41.8774 37.2347 41.5813L33.6675 37.8566C33.3852 37.5632 32.9981 37.3938 32.591 37.3856C32.184 37.3773 31.7903 37.5308 31.4964 37.8125C31.2024 38.0941 31.0321 38.4809 31.023 38.8879C31.0138 39.2949 31.1665 39.6889 31.4475 39.9835L35.0147 43.7084Z" fill="#383838"/>
<path d="M14.6328 53.0295C10.7508 53.0345 7.02941 54.5798 4.28585 57.3263C1.54229 60.0727 0.000843242 63.7957 0 67.6777C0.80226 87.0991 28.4856 87.0772 29.2811 67.6776C29.2793 63.7932 27.7355 60.0684 24.9888 57.3217C22.242 54.5751 18.5172 53.0312 14.6328 53.0295ZM17.5687 64.8342V70.7366C17.6075 71.9605 17.1606 73.1501 16.3255 74.0457C15.4903 74.9413 14.3348 75.4702 13.1111 75.5168H11.7893C10.761 75.4522 9.79601 74.9982 9.0907 74.2472C8.38539 73.4962 7.99278 72.5046 7.99278 71.4743C7.99278 70.444 8.38539 69.4525 9.0907 68.7015C9.79601 67.9504 10.761 67.4964 11.7893 67.4318C12.2046 67.4303 12.6045 67.5893 12.9053 67.8758C13.2061 68.1623 13.3845 68.5539 13.4032 68.9689C13.4108 69.1676 13.3782 69.3658 13.3076 69.5517C13.2369 69.7375 13.1295 69.9073 12.9918 70.0507C12.8541 70.1942 12.6889 70.3084 12.506 70.3866C12.3232 70.4648 12.1265 70.5054 11.9276 70.506C11.4436 70.4431 11.0728 70.8817 11.0669 71.4743C11.0669 71.997 11.3896 72.4427 11.7893 72.4427H13.1111C13.519 72.3956 13.8922 72.1907 14.1508 71.8718C14.4094 71.5529 14.5328 71.1454 14.4945 70.7366V61.3604C14.5018 61.0628 14.5945 60.7736 14.7617 60.5272C14.9288 60.2809 15.1634 60.0878 15.4372 59.9712C15.7111 59.8545 16.0128 59.8191 16.3063 59.8692C16.5997 59.9193 16.8725 60.0529 17.0922 60.2538C18.5399 61.6524 20.0805 62.9516 21.7034 64.1425C21.9306 64.1593 22.1511 64.2275 22.3482 64.342C22.5452 64.4565 22.7137 64.6143 22.8408 64.8034C22.9551 64.9698 23.0355 65.1572 23.0773 65.3548C23.1191 65.5523 23.1215 65.7562 23.0844 65.9546C23.0472 66.1531 22.9713 66.3423 22.8609 66.5114C22.7506 66.6805 22.6079 66.8261 22.4411 66.94C21.688 67.4626 21.1039 67.8623 17.5687 64.8342Z" fill="#383838"/>
<path d="M14.6328 46.7276C18.5149 46.7268 22.2379 45.1853 24.9844 42.4418C27.7308 39.6982 29.2762 35.9768 29.2811 32.0947C28.5022 12.6739 0.779793 12.6633 0 32.0949C0.00406531 35.9745 1.54704 39.694 4.29035 42.4373C7.03366 45.1806 10.7532 46.7236 14.6328 46.7276ZM9.52985 31.1724H11.9123V28.5902C11.9138 27.0864 12.5119 25.6447 13.5752 24.5813C14.6385 23.518 16.0803 22.9199 17.5841 22.9184C19.1717 22.8817 22.1286 23.8075 21.0579 25.8697C20.844 26.2142 20.5031 26.4605 20.109 26.5554C19.7148 26.6504 19.2991 26.5862 18.952 26.3768C18.5414 26.1222 18.0671 25.989 17.584 25.9925C17.2428 25.9921 16.9048 26.059 16.5895 26.1894C16.2741 26.3198 15.9876 26.5111 15.7463 26.7524C15.505 26.9937 15.3137 27.2803 15.1833 27.5956C15.0529 27.911 14.986 28.2489 14.9864 28.5902V31.1724H17.8914C18.2948 31.1788 18.6796 31.3436 18.9626 31.6311C19.2457 31.9187 19.4043 32.306 19.4043 32.7095C19.4043 33.113 19.2457 33.5003 18.9626 33.7879C18.6796 34.0755 18.2948 34.2402 17.8914 34.2466H14.9864V39.7339C14.9871 39.9361 14.9478 40.1365 14.8708 40.3236C14.7939 40.5106 14.6807 40.6806 14.5379 40.8239C14.3952 40.9671 14.2255 41.0808 14.0387 41.1583C13.8519 41.2359 13.6516 41.2758 13.4494 41.2758C13.2471 41.2758 13.0468 41.2359 12.86 41.1583C12.6732 41.0808 12.5036 40.9671 12.3608 40.8239C12.218 40.6806 12.1049 40.5106 12.0279 40.3236C11.9509 40.1365 11.9117 39.9361 11.9123 39.7339V34.2466H9.52985C9.1264 34.2402 8.74164 34.0755 8.45858 33.7879C8.17553 33.5003 8.01689 33.113 8.01689 32.7095C8.01689 32.306 8.17553 31.9187 8.45858 31.6311C8.74164 31.3436 9.1264 31.1788 9.52985 31.1724Z" fill="#383838"/>
<path d="M46.7882 29.6352C50.7269 29.6291 54.5024 28.0606 57.286 25.2741C60.0697 22.4876 61.6342 18.7105 61.6362 14.7718C60.8281 -4.93458 32.7356 -4.91332 31.9247 14.7719C31.9303 18.7122 33.498 22.4896 36.2843 25.2758C39.0705 28.062 42.8479 29.6297 46.7882 29.6352ZM38.5342 10.4834C38.5332 9.43406 38.9486 8.42718 39.6892 7.68372C40.4298 6.94026 41.435 6.52094 42.4844 6.51777H51.0766C52.1276 6.52033 53.1347 6.93897 53.8779 7.68212C54.621 8.42527 55.0397 9.43246 55.0422 10.4834V19.0756C55.0391 20.1249 54.6198 21.1302 53.8763 21.8708C53.1329 22.6114 52.126 23.0268 51.0766 23.0258H42.4844C41.9656 23.026 41.4518 22.9239 40.9725 22.7255C40.4931 22.527 40.0576 22.236 39.6908 21.8692C39.3239 21.5023 39.033 21.0668 38.8345 20.5875C38.6361 20.1081 38.534 19.5944 38.5342 19.0756V10.4834Z" fill="#383838"/>
<path d="M42.4842 19.9521H51.0764C51.1926 19.9537 51.308 19.9323 51.4159 19.889C51.5238 19.8458 51.6221 19.7815 51.705 19.7001C51.7879 19.6186 51.8538 19.5215 51.899 19.4143C51.9441 19.3072 51.9676 19.1922 51.9679 19.076V10.4838C51.9677 10.2474 51.8738 10.0208 51.7066 9.85362C51.5394 9.68647 51.3128 9.59248 51.0764 9.59229H42.4842C42.3679 9.59268 42.2529 9.61613 42.1458 9.66126C42.0387 9.7064 41.9416 9.77233 41.8601 9.85524C41.7786 9.93815 41.7144 10.0364 41.6712 10.1443C41.6279 10.2522 41.6065 10.3676 41.6081 10.4838V19.076C41.6068 19.1914 41.6285 19.3059 41.6721 19.4128C41.7156 19.5197 41.7801 19.6168 41.8617 19.6984C41.9433 19.7801 42.0404 19.8445 42.1473 19.8881C42.2542 19.9317 42.3688 19.9534 42.4842 19.9521ZM46.788 10.5606C47.8976 10.575 48.9568 11.0259 49.7364 11.8156C50.5159 12.6053 50.953 13.6703 50.953 14.78C50.9529 15.8896 50.5158 16.9546 49.7363 17.7443C48.9567 18.534 47.8974 18.9848 46.7879 18.9991C45.6783 18.9847 44.6191 18.5339 43.8396 17.7442C43.06 16.9545 42.6229 15.8895 42.623 14.7798C42.623 13.6702 43.0601 12.6052 43.8397 11.8155C44.6192 11.0258 45.6785 10.575 46.788 10.5606Z" fill="#383838"/>
<path d="M46.7882 15.9242C47.0867 15.9164 47.3704 15.7923 47.5787 15.5784C47.7871 15.3645 47.9037 15.0777 47.9037 14.7791C47.9037 14.4805 47.7871 14.1937 47.5787 13.9798C47.3703 13.7659 47.0866 13.6418 46.7881 13.634C46.4896 13.6419 46.2059 13.7659 45.9976 13.9798C45.7892 14.1937 45.6726 14.4806 45.6726 14.7792C45.6726 15.0778 45.7892 15.3646 45.9976 15.5785C46.206 15.7924 46.4897 15.9164 46.7882 15.9242Z" fill="#383838"/>
</svg>
