<svg width="76" height="75" viewBox="0 0 76 75" fill="none" xmlns="http://www.w3.org/2000/svg">
<path d="M34.5588 14.7058C20.3684 14.7058 8.82349 26.2507 8.82349 40.4411C8.82349 54.6316 20.3684 66.1764 34.5588 66.1764C48.7493 66.1764 60.2941 54.6316 60.2941 40.4411C60.2941 26.2507 48.7493 14.7058 34.5588 14.7058ZM55.7688 38.2352H53.6765C52.4582 38.2352 51.4706 39.2229 51.4706 40.4411C51.4706 41.6594 52.4582 42.647 53.6765 42.647H55.7688C55.5325 44.9355 54.9325 47.1175 54.0282 49.1347L52.2182 48.0897C51.1632 47.4805 49.8141 47.842 49.205 48.897C48.5959 49.952 48.9574 51.3011 50.0124 51.9103L51.8157 52.9514C50.4926 54.7714 48.8893 56.3748 47.0693 57.6979L46.0281 55.8945C45.419 54.8395 44.0698 54.4779 43.0148 55.0872C41.9598 55.6964 41.5984 57.0454 42.2075 58.1004L43.2525 59.9104C41.2353 60.8147 39.0534 61.4148 36.7648 61.651V59.5588C36.7648 58.3406 35.7772 57.3529 34.559 57.3529C33.3407 57.3529 32.3531 58.3406 32.3531 59.5588V61.6511C30.0645 61.4148 27.8826 60.8148 25.8654 59.9106L26.9104 58.1006C27.5195 57.0456 27.1581 55.6964 26.1031 55.0873C25.0481 54.4782 23.6989 54.8397 23.0898 55.8947L22.0486 57.6981C20.2286 56.375 18.6253 54.7716 17.3022 52.9516L19.1056 51.9104C20.1606 51.3013 20.522 49.9522 19.9129 48.8972C19.3038 47.8422 17.9547 47.4805 16.8997 48.0898L15.0897 49.1348C14.1853 47.1175 13.5851 44.9355 13.3488 42.647H15.4411C16.6594 42.647 17.647 41.6594 17.647 40.4411C17.647 39.2229 16.6594 38.2352 15.4411 38.2352H13.3488C13.5851 35.9467 14.1851 33.7648 15.0894 31.7476L16.8994 32.7926C17.9544 33.4017 19.3035 33.0402 19.9126 31.9852C20.5217 30.9302 20.1603 29.5811 19.1053 28.972L17.3019 27.9308C18.625 26.1108 20.2284 24.5074 22.0484 23.1843L23.0895 24.9877C23.6986 26.0427 25.0478 26.4042 26.1028 25.7951C27.1578 25.186 27.5192 23.8369 26.9101 22.7818L25.8651 20.9718C27.8823 20.0676 30.0642 19.4674 32.3528 19.2313V21.3235C32.3528 22.5417 33.3404 23.5293 34.5587 23.5293C35.7769 23.5293 36.7645 22.5417 36.7645 21.3235V19.2311C39.0531 19.4674 41.235 20.0674 43.2522 20.9717L42.2072 22.7817C41.5981 23.8367 41.9595 25.1858 43.0145 25.7949C44.0695 26.4041 45.4187 26.0426 46.0278 24.9876L47.069 23.1842C48.889 24.5073 50.4924 26.1107 51.8154 27.9307L50.0121 28.9719C48.9571 29.581 48.5954 30.9301 49.2047 31.9851C49.814 33.0401 51.1629 33.4016 52.2179 32.7924L54.0279 31.7474C54.9324 33.7648 55.5325 35.9469 55.7688 38.2352Z" fill="#5D5C5C"/>
<path d="M74.648 6.52846L68.7657 0.646104C67.9043 -0.215368 66.5076 -0.215368 65.6461 0.646104C64.7846 1.50757 64.7846 2.90419 65.6461 3.76567L67.7629 5.88243L34.5589 5.88229C25.3278 5.88229 16.6494 9.47699 10.1221 16.0044C3.59471 22.5317 0 31.2103 0 40.4411C0 49.672 3.59471 58.3506 10.1221 64.8779C16.6494 71.4053 25.3278 75 34.5589 75C35.7771 75 36.7647 74.0124 36.7647 72.7941C36.7647 71.5759 35.7771 70.5882 34.5589 70.5882C17.9358 70.5882 4.41177 57.0644 4.41177 40.4411C4.41177 32.3886 7.54751 24.818 13.2416 19.1239C18.9358 13.4299 26.5062 10.2942 34.5589 10.2942H67.7627L65.6461 12.4108C64.7846 13.2723 64.7846 14.6689 65.6461 15.5304C66.0768 15.9611 66.6414 16.1764 67.2059 16.1764C67.7705 16.1764 68.3351 15.9611 68.7657 15.5302L74.648 9.64788C75.5096 8.78655 75.5096 7.38993 74.648 6.52846Z" fill="#5D5C5C"/>
<path d="M41.9119 38.2353H36.7648V30.147C36.7648 28.9288 35.7771 27.9412 34.5589 27.9412C33.3407 27.9412 32.353 28.9288 32.353 30.147V40.4412C32.353 41.6594 33.3407 42.6471 34.5589 42.6471H41.9119C43.1301 42.6471 44.1177 41.6594 44.1177 40.4412C44.1177 39.2229 43.1301 38.2353 41.9119 38.2353Z" fill="#5D5C5C"/>
<path d="M66.9119 42.647C68.1302 42.647 69.1178 41.6594 69.1178 40.4411C69.1178 39.2228 68.1302 38.2352 66.9119 38.2352C65.6937 38.2352 64.7061 39.2228 64.7061 40.4411C64.7061 41.6594 65.6937 42.647 66.9119 42.647Z" fill="#5D5C5C"/>
<path d="M67.8888 49.404C68.2104 48.2295 67.5191 47.0168 66.3446 46.6951C65.1702 46.3735 63.9574 47.0648 63.6358 48.2392C63.3142 49.4137 64.0055 50.6265 65.1799 50.9481C66.3544 51.2697 67.5671 50.5784 67.8888 49.404Z" fill="#5D5C5C"/>
<path d="M63.6805 54.7074C62.6253 54.0983 61.2764 54.4597 60.6672 55.5147C60.0581 56.5697 60.4196 57.9189 61.4746 58.528C62.5296 59.1371 63.8787 58.7756 64.4878 57.7206C65.0969 56.6656 64.7355 55.3165 63.6805 54.7074Z" fill="#5D5C5C"/>
<path d="M55.8761 61.7583C55.0146 62.6198 55.0146 64.0164 55.8761 64.8779C56.7376 65.7393 58.1342 65.7393 58.9956 64.8779C59.8571 64.0164 59.8571 62.6198 58.9956 61.7583C58.1342 60.8968 56.7376 60.8968 55.8761 61.7583Z" fill="#5D5C5C"/>
<path d="M50.7362 70.6703C51.9545 70.6666 52.9391 69.6761 52.9355 68.4578C52.9318 67.2395 51.9413 66.2549 50.723 66.2585C49.5047 66.2622 48.5201 67.2527 48.5237 68.471C48.5274 69.6893 49.5179 70.6739 50.7362 70.6703Z" fill="#5D5C5C"/>
<path d="M42.3614 69.5609C41.1846 69.8762 40.4862 71.0858 40.8015 72.2625C41.1168 73.4393 42.3264 74.1377 43.5032 73.8224C44.6799 73.5071 45.3783 72.2975 45.063 71.1208C44.7477 69.944 43.5382 69.2456 42.3614 69.5609Z" fill="#5D5C5C"/>
</svg>
