<svg width="86" height="86" viewBox="0 0 86 86" fill="none" xmlns="http://www.w3.org/2000/svg">
<path d="M83.4805 13.7952H59.7221V2.51952C59.7221 1.12807 58.594 0 57.2026 0H2.51952C1.12807 0 0 1.12807 0 2.51952V76.5228C0 77.9142 1.12807 79.0423 2.51952 79.0423H26.2779V83.48C26.2779 84.8714 27.406 85.9995 28.7974 85.9995H83.4805C84.8719 85.9995 86 84.8714 86 83.48V16.3147C86 14.9233 84.8719 13.7952 83.4805 13.7952ZM39.7526 13.7952L54.6831 6.54419V13.7952H39.7526ZM5.03903 74.0034V5.03903H46.2474C46.2474 5.03903 27.9923 13.9101 27.9184 13.9559C26.961 14.313 26.2779 15.2328 26.2779 16.3147V74.0032H5.03903V74.0034ZM80.961 80.9605H31.3169V18.8342H80.961V80.9605Z" fill="#383838"/>
<path d="M73.1334 45.698H39.1448C37.7533 45.698 36.6252 46.8261 36.6252 48.2175C36.6252 49.609 37.7533 50.737 39.1448 50.737H73.1334C74.5248 50.737 75.6529 49.609 75.6529 48.2175C75.6529 46.8261 74.5248 45.698 73.1334 45.698Z" fill="#383838"/>
<path d="M73.1334 55.7769H39.1448C37.7533 55.7769 36.6252 56.9049 36.6252 58.2964C36.6252 59.6878 37.7533 60.8159 39.1448 60.8159H73.1334C74.5248 60.8159 75.6529 59.6878 75.6529 58.2964C75.6529 56.9049 74.5248 55.7769 73.1334 55.7769Z" fill="#383838"/>
<path d="M73.1334 65.8555H39.1448C37.7533 65.8555 36.6252 66.9835 36.6252 68.375C36.6252 69.7664 37.7533 70.8945 39.1448 70.8945H73.1334C74.5248 70.8945 75.6529 69.7664 75.6529 68.375C75.6529 66.9835 74.5248 65.8555 73.1334 65.8555Z" fill="#383838"/>
<path d="M36.6252 28.0603V38.139C36.6252 39.5305 37.7533 40.6585 39.1448 40.6585H73.1334C74.5248 40.6585 75.6529 39.5305 75.6529 38.139V28.0603C75.6529 26.6688 74.5248 25.5408 73.1334 25.5408H39.1448C37.7533 25.5408 36.6252 26.6687 36.6252 28.0603ZM41.6643 30.5798H70.6139V35.6195H41.6643V30.5798Z" fill="#383838"/>
</svg>
