<svg width="93" height="86" viewBox="0 0 93 86" fill="none" xmlns="http://www.w3.org/2000/svg">
<path d="M51.2344 68.9932H11.5401C8.24824 68.9932 5.56896 66.317 5.56896 63.022V25.181H80.5333V46.6555C80.5333 48.1931 81.7801 49.4399 83.3178 49.4399C84.8554 49.4399 86.1022 48.1931 86.1022 46.6555V11.5092C86.1022 5.16366 80.9417 0 74.5931 0H11.5092C5.16366 0 0 5.16057 0 11.5092V63.022C0 69.3861 5.17603 74.5621 11.5401 74.5621H51.2344C52.772 74.5621 54.0189 73.3153 54.0189 71.7776C54.0189 70.24 52.772 68.9932 51.2344 68.9932ZM11.5092 5.56896H74.5931C77.8695 5.56896 80.5333 8.23277 80.5333 11.5092V19.612H5.56896V11.5092C5.56896 8.23587 8.23277 5.56896 11.5092 5.56896Z" fill="#383838"/>
<path d="M15.1288 15.0572C16.5026 15.0572 17.6163 13.9435 17.6163 12.5697C17.6163 11.196 16.5026 10.0823 15.1288 10.0823C13.755 10.0823 12.6414 11.196 12.6414 12.5697C12.6414 13.9435 13.755 15.0572 15.1288 15.0572Z" fill="#383838"/>
<path d="M23.8908 15.0572C25.2646 15.0572 26.3783 13.9435 26.3783 12.5697C26.3783 11.196 25.2646 10.0823 23.8908 10.0823C22.517 10.0823 21.4033 11.196 21.4033 12.5697C21.4033 13.9435 22.517 15.0572 23.8908 15.0572Z" fill="#383838"/>
<path d="M32.6526 15.0572C34.0264 15.0572 35.1401 13.9435 35.1401 12.5697C35.1401 11.196 34.0264 10.0823 32.6526 10.0823C31.2788 10.0823 30.1652 11.196 30.1652 12.5697C30.1652 13.9435 31.2788 15.0572 32.6526 15.0572Z" fill="#383838"/>
<path d="M88.2523 56.5588L61.5771 48.4436C59.6155 47.8496 57.4808 48.3786 56.0267 49.8297C54.5694 51.2869 54.0373 53.4124 54.6375 55.3831L62.7527 82.0615C63.4705 84.4191 65.5279 85.966 67.9906 86H68.0773C70.5028 86 72.5634 84.5212 73.343 82.2131L77.1361 70.9422L88.4132 67.1429C90.7491 66.354 92.2341 64.2502 92.197 61.7905C92.1599 59.3278 90.6099 57.2735 88.2523 56.5588ZM75.3571 65.6702C73.7205 66.224 72.4149 67.5296 71.8641 69.1632L68.0803 80.4403L59.9713 53.7774L86.6343 61.8741L75.3571 65.6702Z" fill="#383838"/>
</svg>
