<svg width="75" height="75" viewBox="0 0 75 75" fill="none" xmlns="http://www.w3.org/2000/svg">
<path d="M55.4383 8.17207C54.1843 3.42393 49.8529 0 44.8242 0C42.0841 0 39.4906 1.0147 37.5 2.79873C35.5094 1.0147 32.9159 0 30.1758 0C25.1473 0 20.8159 3.42393 19.5617 8.17207C14.1023 10.1483 10.4004 15.3349 10.4004 21.2402C10.4004 24.1532 11.3054 26.952 12.9795 29.2969C11.3054 31.6418 10.4004 34.4405 10.4004 37.3535C10.4004 43.2589 14.1023 48.4455 19.5617 50.4217C20.4968 53.9621 23.1435 56.7653 26.5137 57.9627V62.2559C26.5137 64.297 27.7128 66.0627 29.4434 66.8871V66.9434C29.4434 71.3858 33.0576 75 37.5 75C41.9424 75 45.5566 71.3858 45.5566 66.9434V66.8871C47.2872 66.0627 48.4863 64.297 48.4863 62.2559V57.9628C51.8566 56.7655 54.5033 53.9622 55.4383 50.4217C60.8977 48.4456 64.5996 43.2589 64.5996 37.3535C64.5996 34.4405 63.6946 31.6418 62.0205 29.2969C63.6946 26.952 64.5996 24.1532 64.5996 21.2402C64.5996 15.3349 60.8977 10.1481 55.4383 8.17207ZM43.3594 62.9883H31.6406C31.2368 62.9883 30.9082 62.6597 30.9082 62.2559V58.5938H44.0918V62.2559C44.0918 62.6597 43.7632 62.9883 43.3594 62.9883ZM23.6203 10.2977C24.0316 7.01133 26.8629 4.39453 30.1758 4.39453C32.1816 4.39453 34.055 5.30435 35.3027 6.85195V34.8623C32.7453 34.1568 30.9082 32.2572 30.9082 30.0293C30.9082 28.8158 29.9244 27.832 28.7109 27.832C27.4975 27.832 26.5137 28.8158 26.5137 30.0293C26.5137 34.6274 30.2941 38.4746 35.3027 39.3592V54.1992H30.1758C26.8629 54.1992 24.0293 51.5679 23.618 48.2817C23.4226 46.3548 24.08 44.381 25.5146 42.9463C26.3728 42.0883 26.3728 40.697 25.5146 39.8389C24.6567 38.981 23.2654 38.981 22.4073 39.8389C20.8214 41.4248 19.8066 43.4062 19.3976 45.4983C16.5951 43.813 14.7949 40.758 14.7949 37.3535C14.7949 34.9146 15.7255 32.5903 17.4152 30.809C18.2194 29.9613 18.2194 28.6324 17.4152 27.7847C15.7255 26.0035 14.7949 23.6792 14.7949 21.2402C14.7949 17.8352 16.5957 14.7797 19.3989 13.0947C19.8142 15.2123 20.8455 17.1932 22.4073 18.7548C22.8363 19.1839 23.3987 19.3985 23.9609 19.3985C24.5231 19.3985 25.0856 19.1839 25.5145 18.7548C26.3726 17.8969 26.3726 16.5056 25.5145 15.6475C24.1078 14.2406 23.4158 12.2667 23.6203 10.2977ZM37.5 70.6055C35.6295 70.6055 34.0831 69.1956 33.8651 67.3828H41.1347C40.9169 69.1956 39.3705 70.6055 37.5 70.6055ZM51.3797 10.2974C51.5843 12.2666 50.8923 14.2406 49.4854 15.6475C48.6272 16.5054 48.6272 17.8967 49.4854 18.7548C49.9144 19.1839 50.4768 19.3985 51.039 19.3985C51.6012 19.3985 52.1637 19.1839 52.5926 18.7548C54.1544 17.193 55.1846 15.2117 55.6 13.0941C58.4041 14.7791 60.2051 17.8348 60.2051 21.2402C60.2051 23.6792 59.2745 26.0035 57.5848 27.7847C56.7806 28.6324 56.7806 29.9613 57.5848 30.809C59.2745 32.5903 60.2051 34.9146 60.2051 37.3535C60.2051 40.7596 58.4033 43.816 55.5986 45.5007C55.1911 43.408 54.1791 41.4253 52.5927 39.8389C51.7348 38.981 50.3435 38.981 49.4854 39.8389C48.6272 40.6969 48.6272 42.0882 49.4854 42.9463C50.9202 44.3811 51.5776 46.355 51.382 48.282C50.9707 51.5681 48.1373 54.1992 44.8242 54.1992H39.6973V23.7315C42.2547 24.437 44.0918 26.3366 44.0918 28.5645C44.0918 29.7779 45.0756 30.7617 46.2891 30.7617C47.5025 30.7617 48.4863 29.7779 48.4863 28.5645C48.4863 23.9663 44.7059 20.1192 39.6973 19.2346V6.85195C40.945 5.30435 42.8184 4.39453 44.8242 4.39453C48.1373 4.39453 50.9684 7.01118 51.3797 10.2974Z" fill="#5D5C5C"/>
<path d="M66.5798 13.6701C67.2529 14.6798 68.6171 14.9525 69.6269 14.2794L74.0214 11.3498C75.0311 10.6767 75.3039 9.31245 74.6308 8.30273C73.9577 7.29301 72.5935 7.02026 71.5837 7.69336L67.1892 10.623C66.1795 11.2961 65.9067 12.6603 66.5798 13.6701Z" fill="#5D5C5C"/>
<path d="M74.0214 47.244L69.6269 44.3143C68.6171 43.6412 67.2529 43.914 66.5798 44.9237C65.9067 45.9334 66.1795 47.2976 67.1892 47.9707L71.5837 50.9004C72.5935 51.5735 73.9577 51.3008 74.6308 50.291C75.3039 49.2815 75.0311 47.9173 74.0214 47.244Z" fill="#5D5C5C"/>
<path d="M7.81087 10.6229L3.41634 7.69323C2.40663 7.02014 1.04242 7.29289 0.36932 8.30261C-0.303775 9.31233 -0.0310215 10.6765 0.978695 11.3496L5.37323 14.2793C6.38294 14.9524 7.74715 14.6797 8.42025 13.6699C9.09334 12.6604 8.82059 11.2962 7.81087 10.6229Z" fill="#5D5C5C"/>
<path d="M5.37323 44.3143L0.978695 47.244C-0.0310215 47.9171 -0.303775 49.2813 0.36932 50.291C1.04242 51.3007 2.40663 51.5735 3.41634 50.9004L7.81087 47.9707C8.82059 47.2976 9.09334 45.9334 8.42025 44.9237C7.74715 43.9141 6.38294 43.6412 5.37323 44.3143Z" fill="#5D5C5C"/>
<path d="M6.5918 31.4941H2.19727C0.983789 31.4941 0 30.5104 0 29.2969C0 28.0834 0.983789 27.0996 2.19727 27.0996H6.5918C7.80527 27.0996 8.78906 28.0834 8.78906 29.2969C8.78906 30.5104 7.80527 31.4941 6.5918 31.4941Z" fill="#5D5C5C"/>
<path d="M72.8027 31.4941H68.4082C67.1947 31.4941 66.2109 30.5104 66.2109 29.2969C66.2109 28.0834 67.1947 27.0996 68.4082 27.0996H72.8027C74.0162 27.0996 75 28.0834 75 29.2969C75 30.5104 74.0162 31.4941 72.8027 31.4941Z" fill="#5D5C5C"/>
</svg>
