<svg width="84" height="75" viewBox="0 0 84 75" fill="none" xmlns="http://www.w3.org/2000/svg">
<path d="M73.5114 53.9877L83.9595 43.5401L73.5114 33.0919L75.1947 31.4086C78.1074 28.4959 78.1074 23.7571 75.1954 20.8444C73.7842 19.4339 71.908 18.6569 69.9127 18.6569C67.918 18.6569 66.0418 19.4339 64.6313 20.8444L62.9479 22.5278L52.4997 12.0797L49.4167 15.1633V20.0367C54.8704 21.3364 58.9386 26.2501 58.9386 32.0959C58.9386 37.9423 54.8704 42.856 49.4167 44.1551V59.2665H40.372L38.5688 61.0697L52.4997 75L62.9479 64.5518L64.3987 66.0033C67.3114 68.9159 72.0502 68.9159 74.9629 66.0033C77.8755 63.0907 77.8755 58.3518 74.9629 55.4392L73.5114 53.9877Z" fill="#5D5C5C"/>
<path d="M44.4914 54.3419V39.5661H46.5431C50.6626 39.5661 54.0133 36.2154 54.0133 32.0959C54.0133 27.9771 50.6626 24.6263 46.5431 24.6263H44.4914V9.85054H29.7156V7.47021C29.7156 3.35077 26.3648 0 22.2454 0C18.1266 0 14.7758 3.35077 14.7758 7.47021V9.85054H0V24.6263H2.05236C5.6664 24.6263 8.68856 27.2059 9.37524 30.6207C9.6731 31.0371 9.85054 31.5457 9.85054 32.0959C9.85054 32.6462 9.6731 33.1548 9.37524 33.5718C8.68856 36.986 5.6664 39.5661 2.05236 39.5661H0V54.3419H14.7758V51.961C14.7758 47.8422 18.1266 44.4914 22.2454 44.4914C26.3648 44.4914 29.7156 47.8422 29.7156 51.961V54.3419H44.4914Z" fill="#5D5C5C"/>
</svg>
