<svg width="108" height="102" viewBox="0 0 108 102" fill="none" xmlns="http://www.w3.org/2000/svg">
<path d="M19.5559 9.04541C15.657 9.04541 12.485 12.2164 12.485 16.1136C12.485 20.0109 15.657 23.1819 19.5559 23.1819C23.458 23.1819 26.6327 20.0109 26.6327 16.1136C26.6327 12.2164 23.458 9.04541 19.5559 9.04541ZM19.5559 18.9665C17.9814 18.9665 16.7006 17.6867 16.7006 16.1136C16.7006 14.5406 17.9814 13.261 19.5559 13.261C21.1336 13.261 22.4173 14.5408 22.4173 16.1138C22.4173 17.6869 21.1336 18.9665 19.5559 18.9665Z" fill="#C9C9C9"/>
<path d="M81.3825 9.04541H62.6906C58.7916 9.04541 55.6196 12.2164 55.6196 16.1136C55.6196 20.0109 58.7916 23.1819 62.6906 23.1819H81.3825C85.2814 23.1819 88.4534 20.0109 88.4534 16.1136C88.4534 12.2164 85.2814 9.04541 81.3825 9.04541ZM81.3825 18.9665H62.6906C61.1161 18.9665 59.8352 17.6867 59.8352 16.1136C59.8352 14.5406 61.1163 13.2608 62.6906 13.2608H81.3825C82.957 13.2608 84.2378 14.5406 84.2378 16.1136C84.2378 17.6867 82.957 18.9665 81.3825 18.9665Z" fill="#C9C9C9"/>
<path d="M37.8806 9.04541C33.9817 9.04541 30.8097 12.2164 30.8097 16.1136C30.8097 20.0109 33.9817 23.1819 37.8806 23.1819C41.7827 23.1819 44.9574 20.0109 44.9574 16.1136C44.9574 12.2164 41.7827 9.04541 37.8806 9.04541ZM37.8806 18.9665C36.3061 18.9665 35.0253 17.6867 35.0253 16.1136C35.0253 14.5406 36.3063 13.2608 37.8806 13.2608C39.4583 13.2608 40.742 14.5406 40.742 16.1136C40.742 17.6867 39.4583 18.9665 37.8806 18.9665Z" fill="#C9C9C9"/>
<path d="M34.4438 43.9866C33.312 43.7155 32.1744 44.4143 31.9039 45.5467L27.7224 63.0449C27.4519 64.1771 28.1502 65.3144 29.2824 65.5848C29.4471 65.6241 29.6121 65.6432 29.7743 65.6432C30.7271 65.6432 31.5912 64.9923 31.8224 64.0248L36.0039 46.5265C36.2746 45.3943 35.5761 44.2573 34.4438 43.9866Z" fill="#C9C9C9"/>
<path d="M42.1821 63.5284C42.5839 63.8862 43.0847 64.0622 43.5834 64.0622C44.1638 64.0622 44.7417 63.8239 45.1583 63.3563L51.0688 56.7214C52.044 55.6358 52.044 53.9357 51.0748 52.8569L45.1581 46.2151C44.3835 45.3456 43.051 45.2691 42.1821 46.0431C41.3126 46.8175 41.2357 48.1499 42.0101 49.019L47.147 54.7855L42.0101 60.5522C41.2359 61.4217 41.3128 62.7542 42.1821 63.5284Z" fill="#C9C9C9"/>
<path d="M21.5443 46.0435C20.6748 45.2691 19.3428 45.3467 18.5684 46.2155L12.6585 52.8499C11.682 53.9357 11.682 55.6366 12.6518 56.7149L18.5686 63.3568C18.9852 63.8245 19.5629 64.0626 20.1435 64.0626C20.6422 64.0626 21.1432 63.8866 21.5447 63.5288C22.4142 62.7544 22.4912 61.4219 21.7168 60.5529L16.5798 54.7864L21.7168 49.0197C22.4907 48.1502 22.4138 46.8177 21.5443 46.0435Z" fill="#C9C9C9"/>
<path d="M102.289 68.4595H101.507C101.097 67.1319 100.566 65.8502 99.918 64.6254L100.477 64.065C101.368 63.1786 101.861 61.995 101.862 60.7321C101.864 59.4663 101.374 58.2779 100.481 57.3852L99.3928 56.2977V11.4015C99.3928 5.11457 94.9562 0 89.5026 0H9.89012C4.43653 0 0 5.11457 0 11.4015V70.3127C0 76.5996 4.43653 81.7142 9.89012 81.7142H22.2566C23.4206 81.7142 24.3643 80.7705 24.3643 79.6065C24.3643 78.4425 23.4206 77.4988 22.2566 77.4988H9.89012C6.81427 77.4988 4.2156 74.2078 4.2156 70.3129V32.073H95.1769V53.3725C94.9368 53.3355 94.6935 53.3113 94.4458 53.3113C94.4433 53.3113 94.4408 53.3113 94.4385 53.3113C93.1756 53.3134 91.992 53.805 91.1125 54.6893L90.5427 55.2566C89.2922 54.5959 87.9898 54.0585 86.6469 53.6482V52.8974C86.6469 50.2923 84.5271 48.1731 81.9213 48.1731H78.107C75.5046 48.1731 73.3875 50.2923 73.3875 52.8974V53.6996C72.0698 54.1137 70.7976 54.6465 69.5815 55.2936L69.0356 54.7493C68.149 53.8583 66.9651 53.3662 65.7022 53.3644C65.6999 53.3644 65.6976 53.3644 65.6951 53.3644C64.4321 53.3644 63.2461 53.8545 62.3551 54.7449L59.6603 57.4385C58.7674 58.331 58.2768 59.5196 58.2787 60.7852C58.2806 62.048 58.7726 63.2317 59.6578 64.1112L60.2399 64.695C59.608 65.901 59.089 67.1591 58.6875 68.4591H57.887C55.2844 68.4591 53.1673 70.5756 53.1673 73.1774V76.9955C53.1673 77.1652 53.1767 77.3328 53.1942 77.4979H40.9303C39.7663 77.4979 38.8226 78.4416 38.8226 79.6056C38.8226 80.7696 39.7663 81.7133 40.9303 81.7133H57.8868H58.6955C59.1031 83.0257 59.63 84.2938 60.2727 85.5078L59.7031 86.0748C57.8694 87.9183 57.8711 90.9112 59.7075 92.7461L62.4038 95.4414C63.2904 96.3324 64.4743 96.8244 65.7371 96.8263H65.744C67.0073 96.8263 68.1933 96.3361 69.0843 95.4455L69.6488 94.8814C70.8737 95.527 72.1472 96.0546 73.4581 96.4599V97.2757C73.4581 99.8808 75.5752 102 78.1779 102H81.998C84.6004 102 86.7175 99.8808 86.7175 97.2757V96.4649C88.0408 96.0567 89.3195 95.527 90.5429 94.8812L91.1049 95.4411C91.9914 96.3324 93.175 96.8242 94.4379 96.8263H94.4452C95.7083 96.8263 96.8942 96.3361 97.7869 95.4441L100.476 92.7505C101.368 91.8641 101.86 90.6804 101.862 89.4176C101.864 88.1518 101.373 86.9633 100.48 86.0706L99.9176 85.5084C100.559 84.2934 101.086 83.0245 101.493 81.7135H102.289C104.895 81.7135 107.015 79.5971 107.015 76.9955V73.1774C107.015 70.576 104.895 68.4595 102.289 68.4595ZM4.2156 27.8574V11.4015C4.2156 7.50652 6.81427 4.2156 9.89012 4.2156H89.5026C92.5785 4.2156 95.1772 7.50652 95.1772 11.4015V27.8576L4.2156 27.8574ZM102.799 76.9959C102.799 77.2636 102.561 77.4984 102.289 77.4984H99.8789C98.8961 77.4984 98.0438 78.1774 97.8243 79.1354C97.3691 81.122 96.5872 83.0061 95.5001 84.7357C94.9765 85.5686 95.0988 86.653 95.7948 87.3483L97.5004 89.0528C97.6278 89.1803 97.6467 89.3325 97.6467 89.4119C97.6465 89.5068 97.6218 89.6446 97.4987 89.7666L94.8057 92.4644C94.678 92.5919 94.5257 92.6111 94.4454 92.6111C94.4452 92.6111 94.445 92.6111 94.445 92.6111C94.3493 92.6111 94.2111 92.5862 94.0876 92.4619L92.3757 90.7571C91.6795 90.0639 90.5973 89.9437 89.766 90.4662C88.0339 91.5558 86.1419 92.339 84.1423 92.794C83.1831 93.0126 82.5023 93.8654 82.5023 94.8494V97.2763C82.5023 97.5472 82.2668 97.785 81.9984 97.785H78.1783C77.9097 97.785 77.6741 97.5474 77.6741 97.2763V94.8434C77.6741 93.8585 76.9919 93.0047 76.0313 92.7875C74.0572 92.341 72.1685 91.5591 70.4182 90.4639C70.0733 90.248 69.6858 90.1426 69.3006 90.1426C68.7561 90.1426 68.2165 90.3531 67.8099 90.7599L66.1046 92.4644C65.9769 92.5919 65.8245 92.6111 65.7443 92.6111C65.744 92.6111 65.7438 92.6111 65.7436 92.6111C65.6481 92.6111 65.5097 92.5862 65.3887 92.4646L62.6881 89.7652C62.4989 89.5762 62.501 89.2414 62.6855 89.0558L64.3972 87.3511C65.0965 86.6546 65.2188 85.5665 64.6919 84.7321C63.6031 83.0082 62.8201 81.1254 62.3645 79.136C62.145 78.1781 61.2927 77.4988 60.3097 77.4988H57.8872C57.614 77.4988 57.3831 77.2686 57.3831 76.9963V73.1782C57.3831 72.9059 57.614 72.6756 57.8872 72.6756H60.3036C61.2875 72.6756 62.1406 71.9948 62.3591 71.0356C62.8089 69.059 63.5818 67.1839 64.6563 65.4621C65.1751 64.6308 65.0526 63.5517 64.3606 62.8578L62.6362 61.1284C62.5192 61.0122 62.4945 60.8744 62.4943 60.7795C62.4943 60.7001 62.5131 60.548 62.6406 60.4207L65.3352 57.7273C65.4629 57.5998 65.6153 57.5806 65.6956 57.5806H65.6962C65.7917 57.5808 65.9301 57.6055 66.0536 57.7298L67.7533 59.4228C68.4516 60.1182 69.5379 60.2374 70.3693 59.7098C72.0916 58.6179 73.9779 57.827 75.9757 57.3595C76.9288 57.1364 77.6029 56.2862 77.6029 55.3071V52.898C77.6029 52.6224 77.8336 52.3893 78.1068 52.3893H81.9211C82.1976 52.3893 82.4313 52.6224 82.4313 52.898V55.2716C82.4313 56.2592 83.1169 57.1143 84.081 57.3289C86.0865 57.7756 87.9998 58.5644 89.7679 59.6737C90.5987 60.1945 91.6799 60.0741 92.3755 59.3815L94.0943 57.6696C94.2109 57.5524 94.349 57.5277 94.4446 57.5275H94.4452C94.5255 57.5275 94.6778 57.5467 94.8053 57.6742L97.5001 60.3674C97.6276 60.4949 97.6464 60.647 97.6464 60.7265C97.6462 60.8214 97.6216 60.9591 97.4976 61.0822L95.7919 62.793C95.0973 63.4896 94.9769 64.574 95.5018 65.4059C96.593 67.1359 97.3781 69.0304 97.8354 71.0365C98.054 71.9954 98.9068 72.6758 99.8906 72.6758H102.289C102.561 72.6758 102.799 72.9109 102.799 73.1785V76.9959Z" fill="#C9C9C9"/>
<path d="M80.0914 62.2139C72.9887 62.2139 67.2103 67.9898 67.2103 75.0893C67.2103 82.1856 72.9887 87.9589 80.0914 87.9589C87.191 87.9589 92.9667 82.1858 92.9667 75.0893C92.9667 67.99 87.191 62.2139 80.0914 62.2139ZM80.0914 83.7433C75.3134 83.7433 71.4259 79.8611 71.4259 75.0893C71.4259 70.3142 75.3134 66.4295 80.0914 66.4295C84.8664 66.4295 88.7511 70.3142 88.7511 75.0893C88.7511 79.8611 84.8661 83.7433 80.0914 83.7433Z" fill="#C9C9C9"/>
<path d="M31.656 77.4985H31.6146C30.4506 77.4985 29.5069 78.4422 29.5069 79.6062C29.5069 80.7702 30.4506 81.7139 31.6146 81.7139H31.656C32.82 81.7139 33.7637 80.7702 33.7637 79.6062C33.7637 78.4422 32.82 77.4985 31.656 77.4985Z" fill="#C9C9C9"/>
</svg>
