<svg width="76" height="86" viewBox="0 0 76 86" fill="none" xmlns="http://www.w3.org/2000/svg">
<path d="M2.11853 65.4177L37.7682 86.0001L41.179 84.0305L5.52951 63.4485L2.11853 65.4177Z" fill="#383838"/>
<path d="M35.6489 36.7527L0 57.3347V61.7472L35.6489 41.1653V36.7527Z" fill="#383838"/>
<path d="M35.6489 27.446L0 48.028V52.4406L35.6489 31.8586V27.446Z" fill="#383838"/>
<path d="M9.76733 61.0016L45.4177 81.5836L49.2392 79.3771L13.5896 58.7952L9.76733 61.0016Z" fill="#383838"/>
<path d="M25.8865 51.6951L61.5368 72.2771L65.3584 70.071L29.7079 49.489L25.8865 51.6951Z" fill="#383838"/>
<path d="M33.9467 47.0416L69.5963 67.6236L73.4177 65.4177L37.7682 44.8357L33.9467 47.0416Z" fill="#383838"/>
<path d="M35.6489 18.1396L0 38.7218V43.1342L35.6489 22.5524V18.1396Z" fill="#383838"/>
<path d="M17.8274 56.3483L53.4768 76.9303L57.2984 74.7242L21.6488 54.1418L17.8274 56.3483Z" fill="#383838"/>
<path d="M72.127 18.6143V59.7784L75.5371 61.7471V20.5828L72.127 18.6143Z" fill="#383838"/>
<path d="M35.6489 0L0 20.5828V24.521L35.6489 3.9387V0Z" fill="#383838"/>
<path d="M35.6489 8.83276L0 29.4151V33.8277L35.6489 13.2457V8.83276Z" fill="#383838"/>
<path d="M67.8874 16.1663L64.0669 13.9602V55.1247L67.8874 57.3308V16.1663Z" fill="#383838"/>
<path d="M51.7682 6.85992L47.9475 4.65381V45.8186L51.7682 48.0246V6.85992Z" fill="#383838"/>
<path d="M43.7089 2.20646L39.8875 0V41.1652L43.7089 43.3718V2.20646Z" fill="#383838"/>
<path d="M59.8282 11.5131L56.0066 9.30664V50.4718L59.8282 52.6779V11.5131Z" fill="#383838"/>
</svg>
