<svg width="91" height="105" viewBox="0 0 91 105" fill="none" xmlns="http://www.w3.org/2000/svg">
<path d="M13.6742 6.76465H16.9645" stroke="#C9C9C9" stroke-width="3" stroke-miterlimit="10" stroke-linecap="round" stroke-linejoin="round"/>
<path d="M89.3516 96.9194C89.3516 100.539 86.3903 103.5 82.771 103.5H8.24519C4.62584 103.5 1.66455 100.539 1.66455 96.9194V8.08065C1.66455 4.46129 4.62584 1.5 8.24519 1.5H82.771C86.3903 1.5 89.3516 4.46129 89.3516 8.08065V96.9194Z" stroke="#C9C9C9" stroke-width="3" stroke-miterlimit="10" stroke-linecap="round" stroke-linejoin="round"/>
<path d="M1.5 12.8516H89.1871V92.8064H1.5V12.8516Z" stroke="#C9C9C9" stroke-width="3" stroke-miterlimit="10" stroke-linecap="round" stroke-linejoin="round"/>
<path d="M31.6064 6.76465H34.7323" stroke="#C9C9C9" stroke-width="3" stroke-miterlimit="10" stroke-linecap="round" stroke-linejoin="round"/>
<path d="M22.5581 6.76465H25.8484" stroke="#C9C9C9" stroke-width="3" stroke-miterlimit="10" stroke-linecap="round" stroke-linejoin="round"/>
<path d="M43.1226 98.0708H47.729" stroke="#C9C9C9" stroke-width="3" stroke-miterlimit="10" stroke-linecap="round" stroke-linejoin="round"/>
<path d="M39.1742 68.4579L45.5903 74.7096L61.3839 58.916" stroke="#C9C9C9" stroke-width="3" stroke-miterlimit="10" stroke-linecap="round" stroke-linejoin="round"/>
<path d="M56.1194 71.255C56.1194 78.6582 50.1968 84.5808 42.7936 84.5808C35.3904 84.5808 29.4678 78.6582 29.4678 71.255C29.4678 63.8518 35.3904 57.9292 42.7936 57.9292C45.9194 57.9292 48.8807 59.0808 51.1839 60.8905" stroke="#C9C9C9" stroke-width="3" stroke-miterlimit="10" stroke-linecap="round" stroke-linejoin="round"/>
<path d="M14.3323 25.3545H54.4742" stroke="#C9C9C9" stroke-width="3" stroke-miterlimit="10" stroke-linecap="round" stroke-linejoin="round"/>
<path d="M14.3323 33.5806H35.8839" stroke="#C9C9C9" stroke-width="3" stroke-miterlimit="10" stroke-linecap="round" stroke-linejoin="round"/>
<path d="M14.3323 41.8066H41.4774" stroke="#C9C9C9" stroke-width="3" stroke-miterlimit="10" stroke-linecap="round" stroke-linejoin="round"/>
<path d="M61.3839 25.3545H78.1646" stroke="#C9C9C9" stroke-width="3" stroke-miterlimit="10" stroke-linecap="round" stroke-linejoin="round"/>
<path d="M42.1355 33.5806H78.1645" stroke="#C9C9C9" stroke-width="3" stroke-miterlimit="10" stroke-linecap="round" stroke-linejoin="round"/>
<path d="M47.8936 41.8066H78.1645" stroke="#C9C9C9" stroke-width="3" stroke-miterlimit="10" stroke-linecap="round" stroke-linejoin="round"/>
<path d="M14.3323 50.0322H65.4968" stroke="#C9C9C9" stroke-width="3" stroke-miterlimit="10" stroke-linecap="round" stroke-linejoin="round"/>
<path d="M71.0903 50.0322H78.1645" stroke="#C9C9C9" stroke-width="3" stroke-miterlimit="10" stroke-linecap="round" stroke-linejoin="round"/>
</svg>
