<svg width="33" height="33" viewBox="0 0 33 33" fill="none" xmlns="http://www.w3.org/2000/svg">
<path d="M26.0564 20.4427C25.3808 19.7393 24.5659 19.3631 23.7023 19.3631C22.8456 19.3631 22.0237 19.7323 21.3203 20.4357L19.1194 22.6297C18.9383 22.5322 18.7572 22.4416 18.5831 22.3511C18.3323 22.2257 18.0955 22.1073 17.8936 21.9819C15.832 20.6725 13.9584 18.9662 12.1615 16.7583C11.2909 15.6578 10.7058 14.7315 10.281 13.7913C10.8521 13.2689 11.3814 12.7256 11.8968 12.2033C12.0918 12.0082 12.2868 11.8063 12.4819 11.6112C13.9445 10.1486 13.9445 8.25418 12.4819 6.79155L10.5804 4.89015C10.3645 4.67423 10.1417 4.45136 9.93271 4.22848C9.51482 3.79666 9.07603 3.35091 8.62331 2.93302C7.94772 2.26439 7.13979 1.90918 6.29008 1.90918C5.44037 1.90918 4.61851 2.26439 3.92202 2.93302C3.91506 2.93998 3.91506 2.93998 3.90809 2.94695L1.54004 5.3359C0.648533 6.2274 0.140097 7.31392 0.0286594 8.57456C-0.138498 10.6083 0.460482 12.5027 0.920163 13.7425C2.04847 16.7861 3.73397 19.6069 6.24829 22.6297C9.29891 26.2723 12.9694 29.1488 17.1622 31.1756C18.7642 31.9347 20.9024 32.8332 23.2913 32.9864C23.4376 32.9934 23.5908 33.0004 23.7301 33.0004C25.339 33.0004 26.6902 32.4223 27.7489 31.2731C27.7558 31.2592 27.7697 31.2522 27.7767 31.2383C28.1389 30.7995 28.5568 30.4025 28.9956 29.9776C29.2951 29.6921 29.6015 29.3926 29.901 29.0791C30.5905 28.3618 30.9527 27.526 30.9527 26.6693C30.9527 25.8057 30.5836 24.9768 29.8801 24.2803L26.0564 20.4427ZM28.5498 27.7767C28.5428 27.7767 28.5428 27.7837 28.5498 27.7767C28.2782 28.0692 27.9996 28.3339 27.7001 28.6264C27.2474 29.0583 26.7877 29.511 26.3559 30.0194C25.6524 30.7716 24.8236 31.1268 23.7371 31.1268C23.6326 31.1268 23.5212 31.1268 23.4167 31.1199C21.3481 30.9875 19.4258 30.1796 17.9841 29.4901C14.042 27.5817 10.5804 24.8724 7.70395 21.4387C5.32893 18.5761 3.74094 15.9295 2.68924 13.0878C2.04151 11.3535 1.8047 10.0024 1.90918 8.72779C1.97882 7.9129 2.29224 7.23731 2.87033 6.65922L5.24535 4.2842C5.58663 3.96382 5.9488 3.7897 6.30401 3.7897C6.7428 3.7897 7.09801 4.05436 7.32088 4.27724C7.32785 4.2842 7.33481 4.29117 7.34178 4.29813C7.76663 4.69513 8.1706 5.10606 8.59545 5.54484C8.81136 5.76772 9.03424 5.99059 9.25712 6.22044L11.1585 8.12185C11.8968 8.86012 11.8968 9.54268 11.1585 10.281C10.9565 10.4829 10.7615 10.6849 10.5595 10.8799C9.9745 11.4789 9.41731 12.0361 8.81136 12.5794C8.79743 12.5933 8.7835 12.6003 8.77654 12.6142C8.17756 13.2132 8.289 13.7982 8.41437 14.1952C8.42133 14.2161 8.4283 14.237 8.43526 14.2579C8.92977 15.4559 9.62625 16.5842 10.6849 17.9284L10.6919 17.9354C12.6142 20.3034 14.641 22.1491 16.8767 23.563C17.1622 23.7441 17.4548 23.8903 17.7334 24.0296C17.9841 24.155 18.2209 24.2734 18.4229 24.3988C18.4507 24.4127 18.4786 24.4336 18.5065 24.4475C18.7433 24.5659 18.9661 24.6216 19.196 24.6216C19.7741 24.6216 20.1362 24.2595 20.2547 24.1411L22.6366 21.7591C22.8734 21.5223 23.2495 21.2367 23.6883 21.2367C24.1202 21.2367 24.4754 21.5083 24.6913 21.7451C24.6982 21.7521 24.6982 21.7521 24.7052 21.7591L28.5428 25.5967C29.2602 26.3071 29.2602 27.0384 28.5498 27.7767Z" fill="#2CB6C0"/>
<path d="M17.81 7.84962C19.6348 8.15607 21.2924 9.01972 22.6157 10.343C23.9391 11.6664 24.7957 13.324 25.1091 15.1488C25.1858 15.6085 25.5828 15.9289 26.0355 15.9289C26.0912 15.9289 26.1399 15.9219 26.1957 15.9149C26.7111 15.8314 27.0523 15.3438 26.9688 14.8284C26.5927 12.6206 25.5479 10.6077 23.953 9.01275C22.358 7.4178 20.3452 6.37307 18.1373 5.99696C17.6219 5.91338 17.1413 6.25466 17.0508 6.7631C16.9602 7.27153 17.2946 7.76604 17.81 7.84962Z" fill="#2CB6C0"/>
<path d="M32.9376 14.557C32.3178 10.9213 30.6044 7.61301 27.9717 4.98029C25.339 2.34757 22.0307 0.634208 18.395 0.0143347C17.8866 -0.0762086 17.406 0.272035 17.3154 0.780471C17.2319 1.29587 17.5731 1.77645 18.0885 1.86699C21.3342 2.41722 24.2942 3.95645 26.6484 6.30361C29.0025 8.65774 30.5348 11.6178 31.085 14.8634C31.1616 15.3231 31.5586 15.6435 32.0113 15.6435C32.067 15.6435 32.1158 15.6365 32.1715 15.6296C32.6799 15.553 33.0282 15.0654 32.9376 14.557Z" fill="#2CB6C0"/>
</svg>
