<svg width="75" height="75" viewBox="0 0 75 75" fill="none" xmlns="http://www.w3.org/2000/svg">
<path d="M60.9091 60.9091C54.6562 67.1619 46.3428 70.6055 37.5 70.6055C28.3405 70.6055 19.6626 66.8394 13.4137 60.2121C14.0946 59.1084 14.4885 57.8096 14.4885 56.4202C14.4885 52.4257 11.2387 49.176 7.24424 49.176C3.24976 49.176 0 52.4259 0 56.4204C0 60.4148 3.24976 63.6646 7.24439 63.6646C8.25205 63.6646 9.21211 63.4573 10.0849 63.0838C17.1721 70.6787 27.0587 75 37.5 75C47.5166 75 56.9336 71.0994 64.0166 64.0166C71.0993 56.9336 75 47.5166 75 37.5H70.6055C70.6055 46.3428 67.1619 54.6564 60.9091 60.9091ZM4.39453 56.4204C4.39453 54.849 5.6729 53.5707 7.24439 53.5707C8.81572 53.5707 10.0941 54.849 10.0941 56.4204C10.0941 57.9917 8.81572 59.2701 7.24439 59.2701C5.6729 59.2701 4.39453 57.9917 4.39453 56.4204Z" fill="#5D5C5C"/>
<path d="M14.0909 14.0909C20.3438 7.83809 28.6572 4.39453 37.5 4.39453C46.5365 4.39453 55.1383 8.0792 61.3698 14.5614C60.8227 15.5799 60.5115 16.743 60.5115 17.9779C60.5115 21.9725 63.7613 25.2223 67.7558 25.2223C71.7502 25.2223 75 21.9724 75 17.9779C75 13.9834 71.7502 10.7336 67.7558 10.7336C66.5938 10.7336 65.4958 11.0102 64.5215 11.4984C57.4648 4.16689 47.7284 0 37.5 0C27.4834 0 18.0664 3.90059 10.9834 10.9834C3.90044 18.0662 0 27.4834 0 37.5H4.39453C4.39453 28.6572 7.83809 20.3436 14.0909 14.0909ZM70.6055 17.9779C70.6055 19.5494 69.3271 20.8277 67.7558 20.8277C66.1844 20.8277 64.9061 19.5494 64.9061 17.9779C64.9061 16.4065 66.1844 15.1282 67.7558 15.1282C69.3271 15.1282 70.6055 16.4064 70.6055 17.9779Z" fill="#5D5C5C"/>
<path d="M19.8641 27.318V47.6821L37.5 57.8641L55.1358 47.6821V27.318L37.5 17.1359L19.8641 27.318ZM48.544 28.5865L37.5 34.9629L26.4559 28.5865L37.5 22.2102L48.544 28.5865ZM24.2587 32.3922L35.3027 38.7685V51.5212L24.2587 45.1448V32.3922ZM39.6972 51.5212V38.7685L50.7413 32.3922V45.1447L39.6972 51.5212Z" fill="#5D5C5C"/>
</svg>
