<svg width="105" height="102" viewBox="0 0 105 102" fill="none" xmlns="http://www.w3.org/2000/svg">
<path d="M102.268 9.00354L97.037 3.77295C95.6929 2.4289 93.8699 1.67383 91.9692 1.67383C90.0684 1.67383 88.2454 2.4289 86.9013 3.77295C86.6951 3.97918 37.6749 52.9716 37.4484 53.249C37.3413 53.3715 37.2571 53.5121 37.1996 53.6642L37.1931 53.6754L29.0485 74.9047C28.9364 75.1969 28.9113 75.5152 28.9763 75.8213C29.0414 76.1273 29.1937 76.408 29.415 76.6292C29.6362 76.8505 29.9169 77.0028 30.2229 77.0679C30.529 77.1329 30.8474 77.1078 31.1395 76.9957L52.3624 68.8511C52.3691 68.8468 52.3756 68.8422 52.3818 68.8372C52.583 68.7529 52.7668 68.6319 52.9237 68.4803L102.268 19.1411C103.61 17.7957 104.364 15.9729 104.364 14.0725C104.364 12.1721 103.61 10.3491 102.268 9.00354ZM94.3153 22.5119L51.7807 65.0502L47.5313 60.8008L90.0659 18.2653L94.3153 22.5119ZM45.2434 58.512L40.9894 54.2626L83.5277 11.727L87.7771 15.9811L45.2434 58.512ZM35.2501 67.7793L38.2649 70.7941L33.3719 72.6714L35.2501 67.7793ZM41.572 69.5253L36.5189 64.4722L39.322 57.1664L44.0957 61.9402L48.8713 66.7158L41.572 69.5253ZM99.9797 16.855L97.1415 19.6895C97.135 19.6959 97.1276 19.6996 97.1211 19.7061L96.6005 20.2267L91.2228 14.8417L91.2145 14.8315L91.2053 14.8241L85.8202 9.43912C86.3446 8.91476 89.3696 5.88886 89.1939 6.0655C89.5588 5.70048 89.992 5.41092 90.4688 5.21336C90.9456 5.01581 91.4567 4.91413 91.9729 4.91413C92.489 4.91413 93.0001 5.01581 93.4769 5.21336C93.9537 5.41092 94.3869 5.70048 94.7518 6.0655L99.9833 11.2961C100.719 12.0344 101.131 13.0342 101.131 14.0763C101.13 15.1184 100.716 16.1176 99.9797 16.855Z" fill="#C9C9C9"/>
<path d="M94.8073 54.8638C94.5365 54.7203 94.2305 54.6565 93.9249 54.6799C93.6193 54.7033 93.3266 54.8129 93.0808 54.996L88.2848 58.5768L84.0761 54.6002C83.8509 54.3874 83.5693 54.2438 83.2648 54.1863C82.9603 54.1288 82.6457 54.16 82.3584 54.2761C82.0711 54.3922 81.8231 54.5883 81.644 54.8412C81.4649 55.0941 81.3622 55.393 81.348 55.7026C81.0468 62.1675 78.8806 68.407 75.1111 73.6678C71.3416 78.9286 66.1298 82.9858 60.105 85.3496C54.0803 87.7135 47.5 88.2828 41.1588 86.9889C34.8175 85.6951 28.9864 82.5933 24.3693 78.0581C19.7522 73.523 16.5465 67.7483 15.1393 61.4312C13.7321 55.1141 14.1836 48.5248 16.4392 42.4586C18.6948 36.3925 22.658 31.109 27.8505 27.2459C33.043 23.3827 39.2427 21.1053 45.7012 20.6883V25.8468C45.7007 26.138 45.7788 26.4239 45.9272 26.6744C46.0757 26.9249 46.2891 27.1307 46.5448 27.27C46.8005 27.4093 47.0891 27.477 47.3801 27.466C47.6711 27.4549 47.9537 27.3655 48.1981 27.2071L67.048 15.0767C67.276 14.9302 67.4634 14.7287 67.5933 14.4909C67.7231 14.253 67.7912 13.9864 67.7912 13.7154C67.7912 13.4445 67.7231 13.1778 67.5933 12.94C67.4634 12.7021 67.276 12.5007 67.048 12.3541L48.2 0.257015C47.9556 0.0998551 47.6733 0.0114305 47.383 0.0010356C47.0926 -0.00935929 46.8048 0.0586589 46.5498 0.197941C46.2948 0.337224 46.082 0.542627 45.9338 0.792563C45.7856 1.0425 45.7075 1.32774 45.7077 1.6183V6.33471C36.4381 6.75141 27.4895 9.85388 19.9513 15.2645C12.4131 20.6751 6.6104 28.1604 3.24954 36.8093C-0.111333 45.4582 -0.885397 54.8976 1.02157 63.9785C2.92854 73.0594 7.4343 81.3901 13.9903 87.9564C20.5464 94.5228 28.87 99.0417 37.9478 100.963C47.0257 102.884 56.4663 102.125 65.1205 98.7777C73.7747 95.4304 81.2692 89.6395 86.6916 82.1098C92.114 74.5801 95.2306 65.6364 95.6618 56.3675C95.6764 56.0617 95.6039 55.758 95.4526 55.4918C95.3013 55.2256 95.0776 55.0078 94.8073 54.8638ZM79.4143 85.6934C74.2415 90.8676 67.8757 94.6905 60.8776 96.8253C53.8795 98.9601 46.4639 99.3413 39.2838 97.9353C32.1037 96.5294 25.3794 93.3795 19.7033 88.7629C14.0272 84.1464 9.57339 78.205 6.73411 71.4619C3.89483 64.7188 2.75723 57.3811 3.42149 50.0948C4.08576 42.8086 6.53151 35.7975 10.5433 29.679C14.5552 23.5605 20.01 18.5224 26.4273 15.0084C32.8447 11.4944 40.0276 9.61237 47.3436 9.528C47.7697 9.52313 48.1767 9.35051 48.4764 9.04755C48.776 8.7446 48.9442 8.33574 48.9444 7.90962V4.58039L63.1787 13.7201L48.9379 22.8754V19.0061C48.938 18.7915 48.8953 18.579 48.8124 18.381C48.7295 18.1831 48.6081 18.0035 48.4552 17.8529C48.3041 17.7 48.123 17.58 47.9232 17.5004C47.7235 17.4208 47.5095 17.3834 47.2946 17.3905C40.2668 17.4994 33.4176 19.6209 27.5587 23.5035C21.6998 27.3861 17.0769 32.8671 14.2379 39.2968C11.3988 45.7265 10.4627 52.8354 11.5404 59.7809C12.6182 66.7263 15.6646 73.2172 20.3186 78.4843C24.9726 83.7513 31.0391 87.5736 37.7991 89.4981C44.5591 91.4227 51.7291 91.3688 58.4594 89.3428C65.1897 87.3169 71.1981 83.4039 75.7724 78.0675C80.3467 72.7312 83.2952 66.1952 84.2685 59.2343L87.0521 61.8644C87.3292 62.1256 87.6895 62.2808 88.0697 62.3028C88.4498 62.3247 88.8256 62.2121 89.131 61.9847L92.1282 59.7467C90.8935 69.5688 86.4197 78.699 79.4143 85.6934Z" fill="#C9C9C9"/>
</svg>
