<svg width="102" height="102" viewBox="0 0 102 102" fill="none" xmlns="http://www.w3.org/2000/svg">
<path d="M37.3999 3.39999H39.0999C39.5508 3.39999 39.9832 3.22089 40.302 2.90208C40.6208 2.58327 40.7999 2.15086 40.7999 1.7C40.7999 1.24913 40.6208 0.816729 40.302 0.497918C39.9832 0.179106 39.5508 0 39.0999 0H37.3999C36.9491 0 36.5167 0.179106 36.1979 0.497918C35.8791 0.816729 35.7 1.24913 35.7 1.7C35.7 2.15086 35.8791 2.58327 36.1979 2.90208C36.5167 3.22089 36.9491 3.39999 37.3999 3.39999Z" fill="#C9C9C9"/>
<path d="M93.3808 0.000140711H44.7064C44.2555 0.000140711 43.8231 0.179247 43.5043 0.498058C43.1855 0.816869 43.0064 1.24927 43.0064 1.70014C43.0064 2.151 43.1855 2.58341 43.5043 2.90222C43.8231 3.22103 44.2555 3.40013 44.7064 3.40013H93.3808C94.7487 3.38602 96.0664 3.91502 97.0448 4.8711C98.0231 5.82718 98.5824 7.13227 98.5998 8.50013V32.3001C98.5824 33.6679 98.0231 34.973 97.0448 35.9291C96.0664 36.8852 94.7487 37.4142 93.3808 37.4001H13.8091C13.5178 37.3998 13.2313 37.4747 12.9774 37.6175L3.39999 42.9965V8.50013C3.41743 7.13227 3.97668 5.82718 4.95506 4.8711C5.93345 3.91502 7.25109 3.38602 8.61899 3.40013H30.5999C31.0508 3.40013 31.4832 3.22103 31.802 2.90222C32.1208 2.58341 32.2999 2.151 32.2999 1.70014C32.2999 1.24927 32.1208 0.816869 31.802 0.498058C31.4832 0.179247 31.0508 0.000140711 30.5999 0.000140711H8.61899C6.3497 -0.0128543 4.1679 0.874716 2.55214 2.46817C0.936369 4.06163 0.0185538 6.23088 0 8.50013V45.9001C4.60882e-06 46.1967 0.0776278 46.4882 0.225157 46.7455C0.372686 47.0029 0.584986 47.2171 0.840963 47.367C1.09694 47.5169 1.38768 47.5972 1.68431 47.6C1.98093 47.6027 2.27311 47.5278 2.53181 47.3826L14.2541 40.8001H93.3808C95.6501 40.8131 97.8319 39.9255 99.4477 38.332C101.063 36.7386 101.981 34.5693 102 32.3001V8.50013C101.981 6.23088 101.063 4.06163 99.4477 2.46817C97.8319 0.874716 95.6501 -0.0128543 93.3808 0.000140711Z" fill="#C9C9C9"/>
<path d="M23.639 9.47788C23.5019 9.18555 23.2843 8.93833 23.0117 8.76515C22.7392 8.59197 22.4229 8.5 22.1 8.5C21.7771 8.5 21.4609 8.59197 21.1883 8.76515C20.9158 8.93833 20.6982 9.18555 20.561 9.47788L17.7936 15.3714L11.6427 16.3127C11.3339 16.3601 11.0441 16.4916 10.8052 16.6929C10.5663 16.8941 10.3875 17.1573 10.2883 17.4536C10.1892 17.7498 10.1736 18.0676 10.2432 18.3721C10.3129 18.6767 10.4651 18.9561 10.6832 19.1798L15.1837 23.7917L14.118 30.3261C14.0667 30.641 14.105 30.964 14.2286 31.2581C14.3522 31.5522 14.556 31.8056 14.8168 31.9894C15.0776 32.1731 15.3849 32.2798 15.7034 32.2971C16.022 32.3145 16.339 32.2418 16.6182 32.0875L22.1 29.0578L27.5818 32.0875C27.861 32.2422 28.1782 32.315 28.4969 32.2977C28.8156 32.2804 29.123 32.1736 29.3838 31.9896C29.6444 31.8056 29.8481 31.5521 29.9717 31.258C30.0953 30.9639 30.1337 30.641 30.0827 30.3261L29.017 23.7917L33.5175 19.1798C33.7356 18.9561 33.8878 18.6767 33.9575 18.3721C34.0271 18.0676 34.0115 17.7498 33.9124 17.4536C33.8133 17.1573 33.6344 16.8941 33.3955 16.6929C33.1566 16.4916 32.8668 16.3601 32.5581 16.3127L26.4071 15.3714L23.639 9.47788ZM25.9832 22.032C25.7973 22.2224 25.6587 22.4538 25.5785 22.7075C25.4983 22.9612 25.4788 23.2302 25.5216 23.4928L26.1623 27.4198L22.9218 25.6285C22.6703 25.4892 22.3875 25.416 22.1 25.416C21.8125 25.416 21.5297 25.4892 21.2782 25.6285L18.037 27.4191L18.6778 23.4922C18.7205 23.2295 18.701 22.9605 18.6209 22.7068C18.5407 22.4531 18.4021 22.2217 18.2162 22.0313L15.4272 19.1725L19.2041 18.5945C19.48 18.5524 19.7412 18.443 19.9648 18.2759C20.1883 18.1088 20.3672 17.8892 20.4857 17.6365L22.1 14.201L23.7137 17.6375C23.8321 17.8902 24.011 18.1098 24.2346 18.2769C24.4581 18.444 24.7194 18.5534 24.9953 18.5955L28.7722 19.1735L25.9832 22.032Z" fill="#C9C9C9"/>
<path d="M62.8118 17.4532C62.7126 17.157 62.5337 16.8939 62.2948 16.6927C62.0558 16.4915 61.7661 16.36 61.4573 16.3127L55.3064 15.3714L52.5389 9.47788C52.4018 9.18555 52.1842 8.93833 51.9116 8.76515C51.6391 8.59197 51.3228 8.5 50.9999 8.5C50.677 8.5 50.3608 8.59197 50.0882 8.76515C49.8157 8.93833 49.5981 9.18555 49.4609 9.47788L46.6935 15.3714L40.5426 16.3127C40.2338 16.3601 39.944 16.4916 39.7051 16.6929C39.4662 16.8941 39.2874 17.1573 39.1882 17.4536C39.0891 17.7498 39.0735 18.0676 39.1431 18.3721C39.2128 18.6767 39.365 18.9561 39.5831 19.1798L44.0837 23.7917L43.0179 30.3261C42.9666 30.641 43.0049 30.964 43.1285 31.2581C43.2521 31.5522 43.4559 31.8056 43.7167 31.9894C43.9775 32.1731 44.2848 32.2798 44.6033 32.2971C44.9219 32.3145 45.2389 32.2418 45.5181 32.0875L50.9999 29.0578L56.4817 32.0875C56.7609 32.2422 57.0781 32.315 57.3968 32.2977C57.7155 32.2804 58.0229 32.1736 58.2837 31.9896C58.5443 31.8056 58.748 31.5521 58.8716 31.258C58.9952 30.9639 59.0336 30.641 58.9826 30.3261L57.9169 23.7917L62.4174 19.1798C62.6356 18.9561 62.7878 18.6766 62.8574 18.372C62.927 18.0674 62.9112 17.7495 62.8118 17.4532ZM54.8831 22.032C54.6972 22.2224 54.5586 22.4538 54.4784 22.7075C54.3982 22.9612 54.3787 23.2302 54.4215 23.4928L55.0622 27.4198L51.8217 25.6285C51.5702 25.4892 51.2874 25.416 50.9999 25.416C50.7124 25.416 50.4296 25.4892 50.1781 25.6285L46.9369 27.4191L47.5777 23.4922C47.6204 23.2295 47.6009 22.9605 47.5208 22.7068C47.4406 22.4531 47.302 22.2217 47.1161 22.0313L44.3271 19.1725L48.104 18.5945C48.3799 18.5524 48.6411 18.443 48.8647 18.2759C49.0882 18.1088 49.2671 17.8892 49.3856 17.6365L50.9999 14.201L52.6136 17.6375C52.732 17.8902 52.911 18.1098 53.1345 18.2769C53.358 18.444 53.6193 18.5534 53.8952 18.5955L57.6721 19.1735L54.8831 22.032Z" fill="#C9C9C9"/>
<path d="M91.7119 17.4532C91.6127 17.157 91.4338 16.8939 91.1948 16.6927C90.9559 16.4915 90.6661 16.36 90.3573 16.3127L84.2064 15.3714L81.439 9.47788C81.3018 9.18555 81.0842 8.93833 80.8116 8.76515C80.5391 8.59197 80.2229 8.5 79.8999 8.5C79.577 8.5 79.2608 8.59197 78.9882 8.76515C78.7157 8.93833 78.4981 9.18555 78.3609 9.47788L75.5935 15.3714L69.4426 16.3127C69.1338 16.3601 68.8441 16.4916 68.6051 16.6929C68.3662 16.8941 68.1874 17.1573 68.0882 17.4536C67.9891 17.7498 67.9735 18.0676 68.0432 18.3721C68.1128 18.6767 68.265 18.9561 68.4831 19.1798L72.9837 23.7917L71.9179 30.3261C71.8666 30.641 71.9049 30.964 72.0285 31.2581C72.1521 31.5522 72.3559 31.8056 72.6167 31.9894C72.8775 32.1731 73.1848 32.2798 73.5033 32.2971C73.8219 32.3145 74.1389 32.2418 74.4181 32.0875L79.8999 29.0578L85.3818 32.0875C85.661 32.2422 85.9781 32.315 86.2968 32.2977C86.6156 32.2804 86.9229 32.1736 87.1838 31.9896C87.4444 31.8056 87.6481 31.5521 87.7716 31.258C87.8952 30.9639 87.9337 30.641 87.8826 30.3261L86.8169 23.7917L91.3175 19.1798C91.5356 18.9561 91.6879 18.6766 91.7574 18.372C91.827 18.0674 91.8113 17.7495 91.7119 17.4532ZM83.7831 22.032C83.5972 22.2224 83.4586 22.4538 83.3784 22.7075C83.2983 22.9612 83.2788 23.2302 83.3215 23.4928L83.9623 27.4198L80.7217 25.6285C80.4702 25.4892 80.1875 25.416 79.8999 25.416C79.6124 25.416 79.3296 25.4892 79.0782 25.6285L75.837 27.4191L76.4777 23.4922C76.5204 23.2295 76.501 22.9605 76.4208 22.7068C76.3406 22.4531 76.202 22.2217 76.0161 22.0313L73.2271 19.1725L77.004 18.5945C77.2799 18.5524 77.5412 18.443 77.7647 18.2759C77.9882 18.1088 78.1672 17.8892 78.2856 17.6365L79.8999 14.201L81.5136 17.6375C81.6321 17.8902 81.811 18.1098 82.0345 18.2769C82.2581 18.444 82.5193 18.5534 82.7952 18.5955L86.5721 19.1735L83.7831 22.032Z" fill="#C9C9C9"/>
<path d="M25.5365 91.8H8.61899C7.25109 91.8141 5.93345 91.2851 4.95506 90.329C3.97668 89.3729 3.41743 88.0678 3.39999 86.7V62.9C3.41743 61.5322 3.97668 60.2271 4.95506 59.271C5.93345 58.3149 7.25109 57.7859 8.61899 57.8H78.1999C78.6507 57.8 79.0831 57.6209 79.4019 57.3021C79.7208 56.9833 79.8999 56.5509 79.8999 56.1C79.8999 55.6492 79.7208 55.2168 79.4019 54.898C79.0831 54.5791 78.6507 54.4 78.1999 54.4H8.61899C6.3497 54.387 4.1679 55.2746 2.55214 56.8681C0.936369 58.4615 0.0185538 60.6308 0 62.9V86.7C0.0185538 88.9692 0.936369 91.1385 2.55214 92.7319C4.1679 94.3254 6.3497 95.213 8.61899 95.2H25.536C25.9869 95.2 26.4193 95.0209 26.7381 94.7021C27.0569 94.3832 27.236 93.9508 27.236 93.5C27.236 93.0491 27.0569 92.6167 26.7381 92.2979C26.4193 91.9791 25.9874 91.8 25.5365 91.8Z" fill="#C9C9C9"/>
<path d="M33.746 91.8003H30.8539C30.4031 91.8003 29.9707 91.9794 29.6518 92.2982C29.333 92.617 29.1539 93.0494 29.1539 93.5003C29.1539 93.9512 29.333 94.3836 29.6518 94.7024C29.9707 95.0212 30.4031 95.2003 30.8539 95.2003H33.746C34.1968 95.2003 34.6292 95.0212 34.948 94.7024C35.2669 94.3836 35.446 93.9512 35.446 93.5003C35.446 93.0494 35.2669 92.617 34.948 92.2982C34.6292 91.9794 34.1968 91.8003 33.746 91.8003Z" fill="#C9C9C9"/>
<path d="M97.8261 57.4232C97.4709 57.7006 97.2404 58.1078 97.1853 58.5552C97.1302 59.0025 97.2551 59.4534 97.5324 59.8088C98.2261 60.6896 98.6022 61.7788 98.5998 62.9001V97.3964L89.0224 92.0174C88.7684 91.8747 88.482 91.7998 88.1907 91.8H39.0999C38.649 91.8 38.2166 91.9791 37.8978 92.2979C37.579 92.6167 37.3999 93.0491 37.3999 93.5C37.3999 93.9509 37.579 94.3833 37.8978 94.7021C38.2166 95.0209 38.649 95.2 39.0999 95.2H87.7457L99.468 101.783C99.7267 101.928 100.019 102.003 100.315 102C100.612 101.997 100.903 101.917 101.159 101.767C101.415 101.617 101.627 101.403 101.775 101.145C101.922 100.888 102 100.597 102 100.3V62.9001C102.005 61.0203 101.375 59.1938 100.212 57.7171C100.075 57.5409 99.904 57.3936 99.7098 57.2834C99.5155 57.1733 99.3015 57.1025 99.0799 57.0752C98.8583 57.0479 98.6335 57.0646 98.4184 57.1243C98.2032 57.184 98.002 57.2856 97.8261 57.4232Z" fill="#C9C9C9"/>
<path d="M69.6999 64.5999C69.6999 64.149 69.5208 63.7166 69.202 63.3978C68.8832 63.079 68.4508 62.8999 67.9999 62.8999H25.789C25.3381 62.8999 24.9057 63.079 24.5869 63.3978C24.2681 63.7166 24.089 64.149 24.089 64.5999C24.089 65.0508 24.2681 65.4832 24.5869 65.802C24.9057 66.1208 25.3381 66.2999 25.789 66.2999H67.9999C68.4508 66.2999 68.8832 66.1208 69.202 65.802C69.5208 65.4832 69.6999 65.0508 69.6999 64.5999Z" fill="#C9C9C9"/>
<path d="M11.8999 66.2999H17.1079C17.5588 66.2999 17.9912 66.1208 18.31 65.802C18.6288 65.4832 18.8079 65.0508 18.8079 64.5999C18.8079 64.149 18.6288 63.7166 18.31 63.3978C17.9912 63.079 17.5588 62.8999 17.1079 62.8999H11.8999C11.4491 62.8999 11.0167 63.079 10.6979 63.3978C10.3791 63.7166 10.2 64.149 10.2 64.5999C10.2 65.0508 10.3791 65.4832 10.6979 65.802C11.0167 66.1208 11.4491 66.2999 11.8999 66.2999Z" fill="#C9C9C9"/>
<path d="M64.5999 78.2C64.5999 77.7491 64.4208 77.3167 64.1019 76.9979C63.7831 76.6791 63.3507 76.5 62.8999 76.5H11.8999C11.4491 76.5 11.0167 76.6791 10.6979 76.9979C10.3791 77.3167 10.2 77.7491 10.2 78.2C10.2 78.6509 10.3791 79.0833 10.6979 79.4021C11.0167 79.7209 11.4491 79.9 11.8999 79.9H62.8999C63.3507 79.9 63.7831 79.7209 64.1019 79.4021C64.4208 79.0833 64.5999 78.6509 64.5999 78.2Z" fill="#C9C9C9"/>
<path d="M62.8998 69.7002H48.0697C47.6189 69.7002 47.1865 69.8793 46.8677 70.1981C46.5489 70.5169 46.3698 70.9493 46.3698 71.4002C46.3698 71.8511 46.5489 72.2835 46.8677 72.6023C47.1865 72.9211 47.6189 73.1002 48.0697 73.1002H62.8998C63.3507 73.1002 63.7831 72.9211 64.1019 72.6023C64.4207 72.2835 64.5998 71.8511 64.5998 71.4002C64.5998 70.9493 64.4207 70.5169 64.1019 70.1981C63.7831 69.8793 63.3507 69.7002 62.8998 69.7002Z" fill="#C9C9C9"/>
<path d="M11.8999 73.1002H43.0063C43.4572 73.1002 43.8896 72.9211 44.2084 72.6023C44.5272 72.2835 44.7063 71.8511 44.7063 71.4002C44.7063 70.9493 44.5272 70.5169 44.2084 70.1981C43.8896 69.8793 43.4572 69.7002 43.0063 69.7002H11.8999C11.4491 69.7002 11.0167 69.8793 10.6979 70.1981C10.3791 70.5169 10.2 70.9493 10.2 71.4002C10.2 71.8511 10.3791 72.2835 10.6979 72.6023C11.0167 72.9211 11.4491 73.1002 11.8999 73.1002Z" fill="#C9C9C9"/>
<path d="M92.3063 84.9998C92.3063 84.5489 92.1272 84.1165 91.8084 83.7977C91.4896 83.4789 91.0572 83.2998 90.6063 83.2998H36.8587C36.4078 83.2998 35.9754 83.4789 35.6566 83.7977C35.3378 84.1165 35.1587 84.5489 35.1587 84.9998C35.1587 85.4507 35.3378 85.8831 35.6566 86.2019C35.9754 86.5207 36.4078 86.6998 36.8587 86.6998H90.6063C91.0572 86.6998 91.4896 86.5207 91.8084 86.2019C92.1272 85.8831 92.3063 85.4507 92.3063 84.9998Z" fill="#C9C9C9"/>
<path d="M11.8999 83.2998C11.4491 83.2998 11.0167 83.4789 10.6979 83.7977C10.3791 84.1165 10.2 84.5489 10.2 84.9998C10.2 85.4507 10.3791 85.8831 10.6979 86.2019C11.0167 86.5207 11.4491 86.6998 11.8999 86.6998H30.5999C31.0508 86.6998 31.4832 86.5207 31.802 86.2019C32.1208 85.8831 32.2999 85.4507 32.2999 84.9998C32.2999 84.5489 32.1208 84.1165 31.802 83.7977C31.4832 83.4789 31.0508 83.2998 30.5999 83.2998H11.8999Z" fill="#C9C9C9"/>
<path d="M93.294 45.822L69.2516 69.8643C69.0147 70.1017 68.853 70.4037 68.7868 70.7325L67.585 76.7424C67.5356 76.9889 67.5415 77.2434 67.6024 77.4874C67.6632 77.7314 67.7774 77.9588 67.9368 78.1534C68.0962 78.3479 68.2967 78.5047 68.5239 78.6123C68.7512 78.72 68.9995 78.7759 69.251 78.7761C69.363 78.7755 69.4748 78.7641 69.5847 78.7421L75.5962 77.5402C75.925 77.474 76.227 77.3123 76.4644 77.0754L100.506 53.0354C100.979 52.5619 101.355 51.9997 101.611 51.3809C101.868 50.7622 102 50.099 102 49.4293C102 48.7595 101.868 48.0963 101.612 47.4775C101.356 46.8587 100.98 46.2965 100.507 45.8228C100.033 45.3492 99.4709 44.9734 98.8521 44.7171C98.2334 44.4607 97.5702 44.3287 96.9005 44.3286C96.2307 44.3285 95.5675 44.4604 94.9487 44.7166C94.3299 44.9728 93.7676 45.3484 93.294 45.822ZM74.424 74.3085L71.4174 74.9096L72.0185 71.9047L92.0921 51.8318L94.4961 54.2358L74.424 74.3085ZM98.1018 50.6297L96.8999 51.8318L94.4959 49.4278L95.698 48.2259C95.8548 48.0636 96.0424 47.934 96.2498 47.845C96.4572 47.7559 96.6803 47.709 96.906 47.707C97.1317 47.705 97.3556 47.7481 97.5645 47.8335C97.7734 47.919 97.9632 48.0452 98.1228 48.2049C98.2825 48.3645 98.4087 48.5543 98.4942 48.7632C98.5796 48.9721 98.6227 49.196 98.6207 49.4217C98.6187 49.6474 98.5718 49.8705 98.4827 50.0779C98.3937 50.2853 98.2641 50.4729 98.1018 50.6297Z" fill="#C9C9C9"/>
</svg>
