<svg width="61" height="86" viewBox="0 0 61 86" fill="none" xmlns="http://www.w3.org/2000/svg">
<path d="M53.1927 59.4214V8.9544C53.1927 6.57954 52.2586 4.30196 50.5961 2.62268C48.9335 0.943407 46.6785 0 44.3272 0L8.86545 0C6.51418 0 4.25922 0.943407 2.59663 2.62268C0.934035 4.30196 0 6.57954 0 8.9544V77.0078C0 78.1837 0.229311 79.3481 0.674841 80.4345C1.12037 81.5209 1.7734 82.508 2.59663 83.3395C3.41986 84.171 4.39718 84.8306 5.47279 85.2806C6.54839 85.7306 7.70122 85.9622 8.86545 85.9622C31.7206 85.9622 30.7454 86.2309 31.4901 85.3354C33.0858 83.4371 31.0823 82.6312 20.5856 73.5693C20.3853 73.3974 20.2307 73.1778 20.1358 72.9302C20.0409 72.6827 20.0087 72.4151 20.0422 72.1518C20.0757 71.8885 20.1737 71.6378 20.3274 71.4225C20.4812 71.2072 20.6857 71.0341 20.9225 70.9188C21.7203 70.5069 21.4189 70.5786 29.5751 73.3365C29.8422 73.4276 30.127 73.4531 30.4058 73.4108C30.6846 73.3686 30.9494 73.2597 31.1783 73.0934C31.4071 72.927 31.5934 72.708 31.7216 72.4544C31.8498 72.2008 31.9163 71.9199 31.9156 71.6352V48.3537C31.9156 47.8788 32.1024 47.4233 32.4349 47.0874C32.7675 46.7515 33.2184 46.5629 33.6887 46.5629C34.159 46.5629 34.6099 46.7515 34.9425 47.0874C35.275 47.4233 35.4618 47.8788 35.4618 48.3537V68.0534C35.4618 68.5284 35.6486 68.9839 35.9811 69.3198C36.3136 69.6556 36.7646 69.8443 37.2349 69.8443C37.7051 69.8443 38.1561 69.6556 38.4886 69.3198C38.8212 68.9839 39.008 68.5284 39.008 68.0534V60.8899C39.008 60.4149 39.1948 59.9594 39.5273 59.6236C39.8598 59.2877 40.3108 59.099 40.7811 59.099C41.2513 59.099 41.7023 59.2877 42.0348 59.6236C42.3673 59.9594 42.5541 60.4149 42.5541 60.8899V68.0534C42.5541 68.5284 42.741 68.9839 43.0735 69.3198C43.406 69.6556 43.857 69.8443 44.3272 69.8443C44.7975 69.8443 45.2485 69.6556 45.581 69.3198C45.9135 68.9839 46.1003 68.5284 46.1003 68.0534V62.6808C46.1003 62.2058 46.2871 61.7503 46.6196 61.4144C46.9522 61.0786 47.4032 60.8899 47.8734 60.8899C48.3437 60.8899 48.7947 61.0786 49.1272 61.4144C49.4597 61.7503 49.6465 62.2058 49.6465 62.6808V68.0534C49.6465 68.5284 49.8333 68.9839 50.1658 69.3198C50.4983 69.6556 50.9493 69.8443 51.4196 69.8443C51.8898 69.8443 52.3408 69.6556 52.6734 69.3198C53.0059 68.9839 53.1927 68.5284 53.1927 68.0534V64.4717C53.1927 63.9967 53.3795 63.5412 53.712 63.2053C54.0445 62.8695 54.4955 62.6808 54.9658 62.6808C55.436 62.6808 55.887 62.8695 56.2195 63.2053C56.5521 63.5412 56.7389 63.9967 56.7389 64.4717V84.1713C56.7389 84.6463 56.9257 85.1018 57.2582 85.4377C57.5907 85.7735 58.0417 85.9622 58.512 85.9622C58.9822 85.9622 59.4332 85.7735 59.7657 85.4377C60.0982 85.1018 60.285 84.6463 60.285 84.1713V64.4717C60.2827 63.6134 60.0767 62.7682 59.6845 62.0069C59.2923 61.2455 58.7252 60.5902 58.0308 60.0957C57.3363 59.6011 56.5346 59.2818 55.6929 59.1645C54.8511 59.0472 53.9938 59.1353 53.1927 59.4214ZM3.54618 8.9544C3.54618 7.52949 4.1066 6.16293 5.10416 5.15537C6.10171 4.1478 7.45469 3.58176 8.86545 3.58176H44.3272C45.738 3.58176 47.091 4.1478 48.0885 5.15537C49.0861 6.16293 49.6465 7.52949 49.6465 8.9544V10.7453H3.54618V8.9544ZM25.3374 82.3805H8.86545C7.45469 82.3805 6.10171 81.8144 5.10416 80.8068C4.1066 79.7993 3.54618 78.4327 3.54618 77.0078V75.2169H17.3585C17.9259 76.0945 17.589 75.7005 25.3374 82.3805ZM45.267 58.0245C44.6219 56.9993 43.6519 56.2251 42.5151 55.8283C41.3784 55.4315 40.1421 55.4355 39.008 55.8396V48.3537C39.008 46.9288 38.4475 45.5623 37.45 44.5547C36.4524 43.5472 35.0995 42.9811 33.6887 42.9811C32.2779 42.9811 30.925 43.5472 29.9274 44.5547C28.9299 45.5623 28.3694 46.9288 28.3694 48.3537H12.4116C11.9414 48.3537 11.4904 48.5424 11.1579 48.8783C10.8253 49.2141 10.6385 49.6697 10.6385 50.1446C10.6385 50.6196 10.8253 51.0751 11.1579 51.411C11.4904 51.7468 11.9414 51.9355 12.4116 51.9355H28.3694V69.1459L23.2629 67.355C22.543 67.1133 21.7789 67.0361 21.0258 67.1289C20.2727 67.2217 19.5494 67.4823 18.9082 67.8918C18.2669 68.3014 17.7237 68.8496 17.3177 69.4969C16.9118 70.1443 16.6532 70.8746 16.5607 71.6352H3.54618V14.327H49.6465V57.6305C48.9333 57.3638 48.1703 57.2608 47.4128 57.3289C46.6553 57.3971 45.9223 57.6347 45.267 58.0245Z" fill="#383838"/>
<path d="M21.2771 35.4903V44.4447C21.2771 45.3947 20.9035 46.3057 20.2384 46.9774C19.5734 47.6491 18.6714 48.0265 17.7309 48.0265C16.7904 48.0265 15.8884 47.6491 15.2234 46.9774C14.5583 46.3057 14.1847 45.3947 14.1847 44.4447V35.4903C14.1847 35.0154 13.9979 34.5599 13.6654 34.224C13.3329 33.8881 12.8819 33.6995 12.4116 33.6995C11.9414 33.6995 11.4904 33.8881 11.1579 34.224C10.8254 34.5599 10.6385 35.0154 10.6385 35.4903V44.4447C10.6385 46.3446 11.3858 48.1667 12.7159 49.5101C14.0459 50.8535 15.8499 51.6083 17.7309 51.6083C19.6119 51.6083 21.4159 50.8535 22.746 49.5101C24.076 48.1667 24.8233 46.3446 24.8233 44.4447V35.4903C24.8233 35.0154 24.6365 34.5599 24.3039 34.224C23.9714 33.8881 23.5204 33.6995 23.0502 33.6995C22.5799 33.6995 22.1289 33.8881 21.7964 34.224C21.4639 34.5599 21.2771 35.0154 21.2771 35.4903Z" fill="#383838"/>
<path d="M39.3626 34.4158L35.4618 39.6631L31.561 34.4158C31.2789 34.0358 30.8588 33.7846 30.3933 33.7175C29.9278 33.6503 29.4549 33.7727 29.0787 34.0576C28.7025 34.3426 28.4538 34.7669 28.3873 35.2371C28.3208 35.7073 28.4419 36.1849 28.7241 36.5649L33.2455 42.6539L28.7241 48.7429C28.4419 49.1228 28.3208 49.6005 28.3873 50.0707C28.4538 50.5409 28.7025 50.9651 29.0787 51.2501C29.4549 51.5351 29.9278 51.6574 30.3933 51.5903C30.8588 51.5231 31.2789 51.2719 31.561 50.8919L35.4618 45.6446L39.3626 50.8919C39.6448 51.2719 40.0648 51.5231 40.5303 51.5903C40.9959 51.6574 41.4687 51.5351 41.8449 51.2501C42.2211 50.9651 42.4698 50.5409 42.5363 50.0707C42.6029 49.6005 42.4817 49.1228 42.1996 48.7429L37.6782 42.6539L42.1996 36.5649C42.4817 36.1849 42.6029 35.7073 42.5363 35.2371C42.4698 34.7669 42.2211 34.3426 41.8449 34.0576C41.4687 33.7727 40.9959 33.6503 40.5303 33.7175C40.0648 33.7846 39.6448 34.0358 39.3626 34.4158Z" fill="#383838"/>
<path d="M23.0502 55.1902H12.4116C11.9414 55.1902 11.4904 55.3789 11.1579 55.7147C10.8254 56.0506 10.6385 56.5061 10.6385 56.9811C10.6385 57.456 10.8254 57.9116 11.1579 58.2474C11.4904 58.5833 11.9414 58.7719 12.4116 58.7719H23.0502C23.5204 58.7719 23.9714 58.5833 24.3039 58.2474C24.6365 57.9116 24.8233 57.456 24.8233 56.9811C24.8233 56.5061 24.6365 56.0506 24.3039 55.7147C23.9714 55.3789 23.5204 55.1902 23.0502 55.1902Z" fill="#383838"/>
<path d="M12.4116 73.0988H19.504C19.9742 73.0988 20.4252 72.9102 20.7578 72.5743C21.0903 72.2385 21.2771 71.7829 21.2771 71.308C21.2771 70.833 21.0903 70.3775 20.7578 70.0416C20.4252 69.7058 19.9742 69.5171 19.504 69.5171H12.4116C11.9414 69.5171 11.4904 69.7058 11.1579 70.0416C10.8254 70.3775 10.6385 70.833 10.6385 71.308C10.6385 71.7829 10.8254 72.2385 11.1579 72.5743C11.4904 72.9102 11.9414 73.0988 12.4116 73.0988Z" fill="#383838"/>
</svg>
